<?xml version="1.0" standalone="no"?>
<!DOCTYPE svg PUBLIC "-//W3C//DTD SVG 20010904//EN"
 "http://www.w3.org/TR/2001/REC-SVG-20010904/DTD/svg10.dtd">
<svg version="1.0" xmlns="http://www.w3.org/2000/svg"
 width="27.123412pt" height="49.511036pt" viewBox="0 0 27.123412 49.511036"
 preserveAspectRatio="xMidYMid meet">
<metadata>
Created by potrace 1.16, written by Peter Selinger 2001-2019
</metadata>
<g transform="translate(-3.857154,52.893419) scale(0.025000,-0.025000)"
fill="#111111" stroke="none">
<path fill="#111111" stroke="none" d="M483 2110 c-161 -20 -279 -60 -306
-102 -29 -43 -30 -72 -5 -103 34 -44 67 -191 68 -305 1 -280 80 -447 262 -555
35 -21 69 -45 76 -53 19 -25 14 -68 -14 -109 -30 -44 -28 -85 7 -134 20 -29
21 -38 15 -142 -10 -159 -19 -174 -127 -213 -100 -35 -146 -65 -155 -101 -25
-100 117 -157 391 -158 156 0 257 14 331 46 44 18 84 61 84 90 0 35 -49 77
-123 104 -132 49 -135 51 -147 92 -6 21 -14 88 -17 150 -5 103 -4 113 16 139
27 34 27 89 1 132 -11 18 -20 48 -20 67 0 32 6 38 83 89 100 66 155 124 196
204 42 84 51 124 62 302 10 169 34 301 62 340 23 33 22 81 -4 114 -56 71 -205
106 -474 111 -104 2 -222 0 -262 -5z"/>
<path fill="#ffffff" stroke="none" d="M907 2049 c96 -12 222 -45 247 -64 28
-21 13 -42 -46 -60 -201 -60 -623 -60 -825 0 -29 9 -55 20 -58 26 -19 30 80
68 240 93 110 17 335 20 442 5z"/>
<path fill="#ffffff" stroke="none" d="M395 1835 c189 -33 497 -28 663 10 38
9 69 12 74 7 6 -6 3 -34 -7 -68 -9 -33 -20 -129 -25 -214 -15 -275 -62 -366
-248 -481 -80 -49 -91 -67 -94 -151 -2 -47 2 -61 20 -81 28 -29 28 -39 -2 -74
-23 -28 -24 -30 -16 -163 13 -216 33 -250 170 -294 122 -40 136 -56 73 -82
-139 -59 -489 -58 -603 1 -47 25 -35 46 40 73 146 51 150 52 169 90 25 50 30
77 40 222 9 124 9 125 -15 151 -29 31 -31 60 -4 84 15 14 20 31 20 71 0 82
-11 98 -105 159 -166 107 -214 189 -235 402 -5 54 -10 127 -10 161 0 35 -7 88
-16 118 -17 61 -13 90 12 80 9 -4 54 -13 99 -21z"/>
</g>
</svg>
