<?xml version="1.0" standalone="no"?>
<!DOCTYPE svg PUBLIC "-//W3C//DTD SVG 20010904//EN"
 "http://www.w3.org/TR/2001/REC-SVG-20010904/DTD/svg10.dtd">
<svg version="1.0" xmlns="http://www.w3.org/2000/svg"
 width="1407.000000pt" height="1050.500000pt" viewBox="0 0 1407.000000 1050.500000"
 preserveAspectRatio="xMidYMid meet">
<metadata>
Created by potrace 1.16, written by Peter Selinger 2001-2019
</metadata>
<g transform="translate(0.000000,1050.500000) scale(0.025000,-0.025000)"
fill="#111111" stroke="none">
<path fill="#111111" stroke="none" d="M21250 40660 c-74 -4 -173 -15 -220
-23 -47 -9 -110 -18 -140 -22 -91 -10 -344 -73 -430 -107 -14 -6 -79 -28 -145
-50 -118 -40 -373 -158 -490 -227 -33 -20 -68 -40 -77 -46 -80 -46 -296 -205
-403 -295 -111 -95 -359 -350 -426 -440 -159 -212 -281 -421 -379 -645 -11
-27 -30 -68 -40 -90 -18 -37 -33 -85 -89 -271 -11 -39 -21 -86 -21 -105 0 -26
-12 -51 -48 -99 -27 -36 -72 -105 -101 -155 -28 -49 -56 -97 -61 -105 -37 -59
-190 -382 -221 -465 -10 -27 -30 -81 -44 -120 -67 -178 -108 -313 -137 -445
-5 -25 -16 -72 -24 -105 -24 -94 -64 -357 -74 -495 -13 -157 -13 -576 -1 -736
24 -307 120 -749 212 -976 10 -26 19 -52 19 -59 0 -6 12 -39 26 -73 52 -121
178 -401 185 -411 4 -5 35 -64 69 -130 33 -66 67 -126 74 -135 7 -8 28 -42 46
-75 52 -92 208 -301 338 -454 113 -132 393 -412 525 -523 64 -54 117 -105 117
-113 0 -8 -6 -29 -14 -47 -8 -18 -22 -53 -32 -78 -11 -24 -30 -57 -43 -73 -51
-60 -169 -120 -301 -151 -30 -8 -84 -23 -120 -34 -36 -11 -103 -30 -150 -42
-47 -12 -114 -30 -150 -41 -36 -10 -92 -25 -125 -34 -68 -17 -195 -53 -300
-84 -38 -12 -113 -33 -165 -48 -52 -14 -133 -37 -180 -50 -47 -13 -114 -30
-150 -39 -36 -9 -87 -24 -115 -34 -27 -10 -93 -30 -145 -45 -136 -39 -389
-125 -430 -146 -19 -11 -39 -19 -44 -19 -19 0 -312 -144 -413 -204 -77 -45
-301 -226 -369 -298 -98 -103 -313 -385 -430 -562 -29 -45 -84 -126 -122 -181
-38 -55 -91 -136 -117 -180 -26 -44 -68 -111 -93 -150 -25 -38 -56 -88 -70
-110 -14 -22 -33 -52 -44 -67 -10 -15 -18 -29 -18 -32 0 -6 -75 -128 -138
-226 -79 -122 -93 -145 -152 -245 -29 -49 -78 -127 -109 -173 -31 -46 -59 -89
-63 -95 -21 -33 -95 -156 -163 -272 -43 -71 -85 -141 -95 -155 -9 -14 -27 -45
-39 -68 -12 -23 -34 -48 -49 -55 -15 -8 -76 -17 -137 -21 -60 -4 -137 -11
-170 -16 -33 -5 -145 -16 -250 -25 -104 -8 -224 -20 -265 -25 -41 -5 -163 -17
-270 -25 -107 -9 -253 -22 -325 -30 -71 -8 -177 -17 -235 -20 -58 -3 -166 -13
-240 -20 -74 -8 -214 -22 -310 -30 -510 -44 -711 -71 -790 -106 -14 -7 -46
-20 -72 -29 -50 -19 -152 -89 -226 -155 -133 -119 -250 -363 -267 -560 -7 -76
7 -384 30 -675 14 -189 22 -292 55 -810 11 -162 24 -360 30 -440 9 -131 34
-506 61 -919 7 -111 6 -157 -2 -167 -9 -11 -88 -14 -387 -16 -377 -3 -377 -3
-437 -50 -33 -25 -265 -251 -517 -501 -252 -251 -471 -461 -490 -469 -29 -13
-103 -15 -573 -10 -369 3 -566 1 -623 -7 -107 -14 -243 -55 -301 -91 -69 -43
-181 -166 -257 -281 -37 -56 -86 -127 -109 -158 -23 -31 -82 -114 -130 -186
-49 -71 -132 -188 -185 -260 -53 -71 -118 -161 -145 -200 -27 -38 -69 -97 -95
-130 -25 -33 -52 -70 -60 -82 -82 -122 -194 -281 -273 -388 -53 -71 -105 -141
-114 -155 -10 -13 -62 -85 -115 -160 -53 -74 -107 -150 -120 -168 -13 -18 -34
-48 -48 -67 -14 -19 -45 -62 -70 -97 -24 -35 -119 -168 -210 -295 -91 -128
-185 -262 -210 -298 -25 -36 -74 -106 -110 -156 -36 -50 -76 -108 -90 -129
-14 -20 -38 -53 -53 -71 -37 -44 -211 -281 -251 -340 -97 -146 -204 -297 -250
-354 -17 -22 -60 -83 -96 -135 -35 -52 -90 -131 -122 -175 -63 -86 -161 -225
-273 -385 -38 -56 -81 -116 -95 -135 -14 -19 -56 -79 -95 -135 -38 -56 -92
-132 -120 -170 -27 -38 -70 -99 -95 -135 -25 -37 -66 -94 -91 -128 -25 -34
-79 -111 -120 -172 -41 -60 -101 -146 -134 -190 -33 -44 -88 -123 -123 -175
-36 -52 -79 -113 -96 -135 -18 -22 -48 -65 -68 -95 -21 -30 -82 -120 -137
-200 -56 -80 -149 -217 -208 -305 -60 -88 -133 -194 -164 -235 -82 -110 -226
-323 -266 -394 -58 -103 -91 -217 -104 -367 -19 -217 3 -649 46 -916 21 -126
30 -161 55 -202 44 -70 112 -101 245 -112 55 -4 580 -8 1167 -8 1045 -1 1068
-1 1078 -20 6 -13 10 -236 10 -653 0 -348 5 -914 10 -1258 5 -344 14 -1808 20
-3255 5 -1446 14 -3078 20 -3625 34 -3433 48 -4144 86 -4324 21 -99 65 -175
148 -254 73 -69 101 -85 221 -122 106 -33 221 -43 440 -38 168 4 213 8 280 27
44 13 91 29 105 36 14 8 49 26 78 41 29 15 63 37 75 49 12 12 39 34 59 49 40
30 78 89 109 170 14 39 21 96 29 265 17 369 30 903 36 1491 3 311 9 777 15
1035 5 259 14 904 19 1435 5 531 14 1348 19 1815 6 468 15 1624 21 2570 6 946
15 2260 21 2920 6 660 8 1290 5 1400 -6 173 -4 203 9 223 16 22 16 22 494 22
383 0 481 -3 489 -13 8 -9 15 -368 22 -1188 13 -1518 28 -2661 40 -3069 5
-179 14 -575 20 -880 6 -305 15 -787 20 -1070 37 -1922 66 -2896 88 -2965 5
-16 22 -56 37 -88 48 -99 201 -221 300 -238 22 -3 68 -14 102 -23 45 -12 111
-17 245 -19 166 -2 192 0 283 23 76 19 118 36 179 75 102 64 146 120 182 234
26 85 26 90 39 586 8 275 16 550 20 610 3 61 10 463 15 895 5 432 14 1044 20
1360 32 1760 59 4099 60 5192 0 521 1 558 18 566 9 4 297 8 639 7 519 -1 624
-3 638 -15 16 -13 17 -35 11 -240 -5 -182 -21 -4317 -21 -5385 0 -280 0 -280
30 -333 31 -57 103 -129 207 -208 35 -26 81 -64 103 -84 58 -52 180 -132 249
-163 115 -53 247 -34 631 90 96 31 149 60 194 107 32 33 34 39 47 158 21 192
44 1806 65 4578 8 923 16 1480 22 1488 7 9 120 12 504 12 599 0 513 21 843
-210 47 -32 105 -71 130 -86 25 -16 74 -47 110 -69 180 -115 225 -144 300
-190 45 -27 172 -110 281 -183 110 -72 212 -139 227 -147 45 -26 177 -108 223
-139 24 -16 82 -52 129 -79 122 -70 240 -157 245 -181 3 -12 6 -1740 8 -3841
2 -3820 2 -3820 26 -3865 42 -80 116 -150 241 -229 31 -20 90 -61 131 -92 41
-30 101 -70 134 -89 33 -18 74 -44 90 -56 57 -42 173 -103 219 -115 36 -9 65
-9 124 0 89 14 267 63 310 85 16 8 82 29 148 46 235 60 317 98 349 160 38 73
38 64 33 3922 -5 3074 -3 3750 8 3758 7 6 43 16 81 21 37 5 84 14 103 19 53
15 88 12 98 -7 5 -10 13 -175 16 -368 4 -192 11 -514 16 -715 28 -1075 63
-4080 58 -5045 -2 -396 1 -756 6 -799 8 -66 14 -84 39 -113 35 -40 104 -87
206 -140 91 -47 102 -63 91 -123 -5 -25 -12 -173 -15 -330 -6 -240 -5 -302 9
-390 16 -104 57 -241 81 -270 7 -8 20 -28 28 -45 26 -51 109 -140 182 -197
107 -83 303 -187 525 -278 134 -55 174 -72 210 -88 46 -20 119 -48 200 -77
277 -99 361 -128 400 -140 25 -7 97 -31 160 -52 125 -43 207 -68 345 -107 179
-51 442 -114 524 -127 35 -5 67 -12 72 -15 5 -3 55 -14 111 -25 57 -11 128
-26 158 -33 30 -8 87 -17 125 -21 39 -3 108 -12 155 -20 47 -7 146 -19 220
-25 74 -6 178 -15 230 -20 275 -27 710 17 890 91 25 10 56 21 70 25 14 4 36
14 50 23 14 9 39 23 55 31 17 8 62 47 101 86 69 68 72 74 105 175 32 101 33
109 34 274 0 173 -4 201 -55 355 -35 105 -108 240 -193 360 -83 115 -337 366
-533 527 -179 147 -305 233 -559 383 -136 80 -256 160 -261 175 -6 14 7 475
30 1060 8 215 20 683 26 1040 6 358 15 682 20 720 5 39 14 302 20 585 6 283
15 594 20 690 6 96 14 414 20 705 5 292 15 800 22 1130 6 330 13 829 14 1109
3 482 4 511 22 528 25 26 114 48 191 48 35 0 89 6 120 14 31 8 86 17 123 20
58 6 68 4 76 -11 5 -10 12 -101 16 -203 3 -102 10 -302 15 -445 6 -143 15
-573 21 -955 6 -382 15 -987 21 -1345 5 -357 12 -1392 15 -2300 2 -907 6
-1691 8 -1742 3 -84 6 -96 36 -143 38 -60 90 -99 214 -160 106 -52 98 -21 77
-299 -12 -172 -7 -431 10 -541 33 -209 148 -384 330 -502 107 -69 106 -68 209
-126 72 -41 163 -83 248 -116 48 -19 101 -41 117 -50 46 -23 146 -66 156 -66
5 0 49 -19 97 -41 48 -23 112 -50 142 -61 30 -10 87 -30 125 -44 101 -36 188
-63 445 -138 47 -13 117 -34 155 -46 114 -35 244 -71 330 -90 44 -10 107 -25
140 -33 188 -49 438 -99 580 -117 44 -6 109 -17 145 -24 120 -26 523 -57 745
-56 176 0 235 4 365 26 144 23 280 60 340 91 14 7 29 13 34 13 17 0 117 72
177 127 106 99 167 259 155 410 -19 234 -46 345 -122 511 -69 149 -241 380
-390 523 -79 76 -356 304 -435 358 -121 83 -259 174 -394 259 -22 14 -56 35
-75 48 -19 12 -68 40 -108 63 -97 56 -101 65 -91 176 5 50 13 216 19 370 6
154 15 363 20 465 5 102 14 415 20 695 6 281 15 593 20 695 5 102 14 388 20
635 6 248 15 522 20 611 6 88 15 369 20 625 5 255 15 617 20 804 6 187 15 475
20 640 5 165 9 638 10 1050 0 863 -7 981 -71 1272 -11 51 -19 105 -17 120 3
28 3 28 1813 33 1956 5 2295 4 2295 -13 0 -5 -80 -92 -178 -191 -169 -173
-357 -405 -446 -553 -16 -26 -45 -72 -65 -101 -84 -125 -180 -293 -195 -340
-4 -13 -25 -53 -46 -90 -20 -37 -52 -101 -69 -142 -17 -41 -38 -88 -46 -105
-24 -52 -149 -371 -179 -460 -66 -191 -148 -496 -171 -635 -7 -42 -20 -100
-29 -130 -23 -81 -63 -276 -70 -345 -4 -33 -15 -100 -26 -150 -10 -49 -23
-130 -28 -180 -12 -108 -55 -412 -77 -545 -29 -176 -35 -215 -50 -335 -8 -66
-21 -165 -29 -220 -8 -55 -18 -131 -21 -170 -4 -38 -13 -110 -21 -160 -7 -49
-21 -166 -29 -260 -8 -93 -19 -195 -25 -225 -5 -30 -14 -104 -20 -165 -6 -60
-18 -157 -26 -215 -8 -58 -19 -170 -24 -250 -6 -80 -17 -181 -25 -225 -7 -44
-16 -114 -20 -155 -6 -70 -20 -195 -61 -545 -22 -196 -49 -435 -73 -675 -12
-113 -28 -252 -36 -310 -8 -58 -17 -132 -20 -165 -3 -33 -15 -127 -26 -210
-10 -82 -26 -204 -35 -270 -8 -66 -26 -185 -39 -265 -13 -80 -31 -221 -40
-315 -8 -93 -20 -195 -25 -225 -5 -30 -14 -102 -20 -160 -6 -58 -18 -141 -27
-185 -23 -113 -22 -295 2 -332 29 -46 148 -146 245 -207 25 -15 80 -50 122
-77 43 -27 80 -49 82 -49 2 0 30 -18 62 -39 59 -39 206 -117 470 -249 123 -62
180 -89 340 -163 22 -10 44 -19 49 -19 8 0 26 -8 148 -64 31 -14 63 -26 70
-26 8 0 36 -7 64 -15 66 -20 73 -42 28 -94 -18 -22 -63 -67 -102 -99 -88 -77
-168 -174 -274 -337 -100 -152 -165 -282 -213 -422 -55 -162 -57 -424 -4 -524
65 -122 167 -226 267 -274 31 -15 67 -33 81 -40 14 -7 75 -23 135 -36 86 -18
139 -22 240 -21 134 2 318 23 415 49 30 8 82 19 115 25 61 10 189 46 283 79
128 46 173 65 269 110 57 27 108 49 114 49 7 0 46 19 88 43 42 24 111 60 154
80 43 20 104 54 135 75 31 22 125 83 207 138 221 145 406 289 567 441 43 41
86 73 97 73 11 0 85 -11 165 -25 80 -14 169 -25 198 -25 29 0 82 -8 118 -19
36 -10 101 -21 145 -25 69 -6 297 -38 363 -52 29 -6 28 -25 -4 -55 -33 -30
-77 -98 -139 -214 -26 -49 -65 -122 -87 -161 -73 -135 -151 -349 -173 -480
-68 -396 65 -670 384 -790 100 -37 244 -64 345 -64 166 0 525 77 696 149 14 5
57 22 95 37 176 66 385 175 545 284 212 143 338 232 417 293 69 53 71 47 92
-243 12 -159 19 -191 55 -253 34 -58 137 -154 206 -191 123 -67 401 -105 678
-92 176 9 270 29 359 78 137 75 211 193 233 373 32 263 39 400 45 850 5 352
10 483 18 492 13 13 61 24 207 48 372 61 510 87 610 114 41 12 93 21 116 21
23 0 61 7 85 16 24 9 105 34 179 56 74 22 158 47 187 55 89 27 83 70 83 -568
0 -559 0 -559 40 -602 49 -54 121 -91 230 -118 47 -11 105 -29 130 -39 100
-40 343 -111 451 -131 57 -10 72 -10 120 6 30 10 70 26 89 36 19 11 40 19 47
19 12 0 217 104 238 120 6 4 46 27 90 49 78 41 126 69 232 138 82 53 162 131
170 166 10 41 -2 7615 -12 7644 -16 47 70 103 400 259 88 41 203 97 255 124
265 134 456 233 465 240 17 13 639 333 860 442 66 33 129 64 140 71 11 6 92
48 180 92 88 45 187 97 220 115 33 18 78 43 101 56 22 12 60 34 83 48 23 15
160 87 304 160 144 74 295 151 335 172 57 30 77 36 90 28 16 -10 17 -172 24
-2450 12 -4621 10 -4389 34 -4421 55 -74 225 -146 459 -195 50 -10 113 -26
140 -35 35 -12 84 -17 160 -18 110 0 110 0 197 43 79 39 203 118 343 217 86
61 161 132 181 172 19 37 19 132 22 4003 3 4127 6 4838 22 4930 6 30 15 154
20 275 6 121 17 272 24 335 8 63 17 160 21 215 3 55 15 172 25 260 10 88 21
214 24 280 4 66 15 206 26 310 11 105 27 285 36 400 9 116 20 257 24 315 5 58
20 260 34 450 14 190 33 404 41 475 8 72 20 210 25 307 5 97 16 223 24 280 8
57 17 157 21 223 3 66 15 210 25 320 10 110 22 247 25 305 3 58 10 146 15 195
5 50 17 167 25 260 9 94 22 226 30 295 8 69 19 194 25 278 5 85 17 206 25 270
8 64 19 189 24 277 5 88 16 230 25 315 21 210 54 576 66 735 5 72 16 195 24
275 8 80 18 204 21 275 4 72 13 168 21 215 8 47 18 164 24 260 6 96 19 256 30
355 43 403 53 556 47 740 -4 127 -11 201 -24 251 -20 75 -99 227 -161 309 -60
80 -234 219 -316 254 -149 62 -208 81 -250 81 -25 0 -73 6 -108 14 -35 8 -137
22 -228 31 -91 8 -196 20 -235 26 -38 5 -133 19 -210 30 -77 11 -203 27 -280
35 -77 8 -180 21 -230 29 -49 8 -135 19 -190 25 -55 5 -145 16 -200 24 -55 8
-143 19 -195 25 -52 7 -133 18 -180 27 -47 8 -157 23 -245 33 -186 23 -197 29
-209 122 -4 30 -16 88 -27 129 -51 183 -81 288 -94 320 -7 19 -29 85 -49 145
-37 112 -116 339 -159 455 -212 570 -248 683 -322 1015 -102 457 -157 1103
-125 1465 5 58 14 173 19 256 6 83 17 196 25 250 9 55 20 155 26 224 6 69 15
150 20 180 5 30 14 105 20 165 6 61 20 171 30 245 11 74 24 185 30 245 5 61
17 178 26 260 13 118 16 245 16 600 -1 248 -6 491 -11 540 -6 50 -19 178 -31
285 -44 417 -109 724 -231 1090 -50 149 -70 204 -84 235 -7 17 -17 44 -21 60
-4 17 -13 41 -20 55 -7 14 -42 91 -79 173 -164 369 -295 593 -502 864 -124
161 -344 401 -467 508 -222 193 -280 238 -511 393 -262 177 -397 252 -656 366
-256 114 -260 115 -313 126 -27 6 -57 15 -67 21 -18 9 -142 47 -248 75 -483
128 -1218 150 -1701 50 -333 -69 -464 -113 -725 -243 -227 -114 -292 -149
-349 -190 -137 -100 -135 -99 -274 -119 -338 -47 -575 -113 -787 -217 -49 -24
-95 -46 -100 -48 -20 -8 -201 -110 -260 -147 -117 -73 -330 -246 -434 -352
-161 -165 -383 -447 -442 -562 -8 -15 -39 -69 -69 -120 -133 -221 -306 -652
-350 -873 -7 -33 -16 -67 -21 -77 -5 -9 -16 -63 -24 -120 -9 -56 -20 -119 -25
-138 -29 -109 -41 -639 -21 -870 13 -134 49 -291 102 -434 32 -88 32 -88 18
-230 -7 -77 -13 -220 -12 -316 2 -175 33 -531 54 -603 5 -21 16 -70 24 -110
33 -179 121 -492 181 -642 75 -191 187 -410 288 -565 49 -75 68 -106 94 -152
11 -18 36 -61 56 -96 54 -91 73 -157 87 -294 15 -156 6 -550 -16 -663 -14 -73
-39 -247 -66 -450 -6 -44 -11 -210 -11 -370 -2 -324 0 -338 90 -647 23 -81 36
-65 -210 -275 -91 -78 -301 -304 -379 -408 -40 -54 -152 -224 -207 -315 -11
-19 -61 -114 -110 -210 -49 -96 -97 -188 -106 -205 -8 -16 -27 -59 -42 -95
-63 -158 -121 -296 -145 -346 -10 -22 -19 -45 -19 -50 0 -9 -49 -141 -74 -199
-7 -16 -26 -60 -42 -97 -16 -38 -34 -68 -41 -68 -6 0 -40 42 -75 93 -102 150
-285 322 -468 441 -25 16 -56 37 -70 46 -32 21 -235 120 -247 120 -4 0 -19 6
-33 13 -49 26 -217 76 -325 99 -94 19 -139 22 -305 21 -168 -1 -214 -5 -335
-28 -77 -15 -155 -34 -174 -41 -18 -8 -40 -14 -48 -14 -21 0 -136 -46 -218
-87 -115 -58 -127 -65 -195 -107 -36 -23 -76 -47 -90 -54 -104 -53 -284 -227
-416 -401 -53 -69 -102 -130 -110 -134 -8 -5 -436 -8 -952 -7 -1052 1 -966 -6
-977 79 -3 25 -15 87 -25 136 -11 50 -22 108 -25 130 -3 22 -15 78 -25 125
-10 47 -26 128 -35 180 -34 200 -55 314 -64 344 -5 17 -15 65 -21 106 -6 41
-15 93 -21 114 -10 36 -22 102 -68 361 -10 55 -26 141 -36 190 -9 50 -28 151
-42 225 -13 74 -33 176 -43 225 -30 140 -50 241 -70 355 -11 58 -26 137 -34
175 -9 39 -16 81 -16 94 0 13 -11 72 -24 130 -13 58 -34 153 -46 211 -13 58
-40 177 -62 265 -22 88 -46 196 -53 240 -7 44 -21 109 -30 145 -9 36 -25 99
-35 140 -10 41 -37 152 -60 245 -23 94 -50 204 -60 245 -10 41 -32 129 -50
195 -18 66 -38 145 -44 175 -13 55 -31 119 -68 238 -11 35 -26 87 -34 115 -7
29 -25 93 -39 142 -15 50 -37 131 -51 180 -13 50 -32 122 -42 160 -11 39 -29
106 -41 150 -12 44 -30 107 -41 140 -40 125 -80 242 -105 310 -15 39 -35 93
-45 120 -19 52 -50 128 -75 180 -7 17 -28 64 -45 105 -79 191 -184 363 -307
505 -121 141 -385 348 -558 440 -39 20 -113 61 -165 91 -52 31 -129 74 -170
96 -41 23 -95 52 -120 66 -157 86 -608 314 -730 370 -52 24 -122 56 -155 72
-33 15 -91 40 -130 54 -187 71 -250 102 -280 141 -13 17 -44 52 -69 79 -25 27
-48 58 -52 68 -11 35 24 65 143 125 126 64 234 121 274 145 13 8 67 40 119 72
101 60 106 64 240 166 165 125 257 205 406 354 232 232 245 247 503 596 85
114 290 477 384 680 56 120 127 304 162 420 9 30 20 64 25 76 16 41 103 408
114 484 55 370 67 863 28 1195 -33 278 -72 473 -138 685 -59 188 -87 267 -130
362 -25 57 -52 117 -60 135 -8 17 -14 35 -14 40 0 13 -129 264 -188 365 -76
133 -101 172 -171 278 -244 366 -479 620 -846 919 -175 141 -184 151 -257 254
-125 178 -443 472 -678 628 -79 53 -313 189 -324 189 -3 0 -47 20 -98 44 -128
61 -198 89 -303 120 -49 15 -112 36 -140 46 -61 22 -255 66 -350 80 -38 5 -95
14 -125 20 -59 11 -347 31 -420 28 -25 0 -106 -4 -180 -8z"/>
<path fill="#ffffff" stroke="none" d="M23758 38992 c230 -156 533 -462 769
-777 202 -270 299 -441 443 -785 18 -43 44 -112 95 -250 46 -126 106 -354 121
-460 3 -25 12 -70 20 -100 33 -136 58 -402 58 -620 -1 -235 -28 -537 -63 -690
-11 -47 -29 -128 -41 -180 -28 -127 -105 -386 -140 -473 -36 -91 -182 -407
-218 -472 -49 -89 -59 -105 -159 -255 -275 -413 -704 -834 -1102 -1082 -158
-98 -385 -218 -478 -253 -21 -7 -72 -28 -113 -45 -181 -77 -419 -143 -640
-180 -30 -5 -116 -19 -190 -32 -120 -20 -169 -22 -445 -22 -188 0 -339 4 -385
12 -242 38 -331 53 -385 67 -141 36 -292 79 -320 90 -16 7 -57 23 -90 35 -33
12 -85 33 -115 46 -30 12 -89 37 -130 54 -265 111 -595 318 -825 519 -291 253
-554 550 -707 796 -172 279 -307 547 -403 805 -15 41 -35 95 -45 120 -10 25
-21 63 -24 85 -4 22 -16 67 -27 100 -37 116 -95 486 -110 706 -20 289 9 690
70 974 11 50 24 113 30 140 18 83 57 216 86 290 14 39 33 90 41 115 16 49 45
115 74 172 11 20 20 43 20 51 0 18 108 230 155 302 19 31 35 57 35 59 0 2 16
30 36 62 20 33 45 73 56 91 10 17 25 33 32 36 7 3 100 -1 207 -9 416 -29 531
-34 719 -29 282 7 438 14 585 26 127 10 184 15 450 44 138 15 346 46 481 71
45 8 110 19 145 25 35 5 100 18 144 29 44 10 134 31 200 45 215 48 470 120
715 202 58 19 130 42 160 50 30 8 60 19 66 24 6 5 35 17 65 28 66 23 267 104
294 119 11 6 52 24 90 42 39 17 77 35 85 40 8 5 44 24 80 41 105 51 254 136
341 195 44 29 89 54 99 54 10 0 50 -21 88 -48z"/>
<path fill="#ffffff" stroke="none" d="M35790 32878 c165 -219 479 -545 655
-681 158 -122 308 -225 415 -286 41 -23 95 -55 120 -71 45 -29 171 -97 245
-133 86 -41 232 -109 260 -122 17 -7 73 -33 126 -58 140 -66 337 -139 539
-201 25 -8 66 -21 93 -30 80 -27 140 -47 187 -61 106 -33 191 -65 261 -98 40
-19 90 -42 109 -51 141 -66 310 -199 372 -293 14 -21 42 -64 64 -96 130 -191
246 -402 313 -570 17 -43 31 -86 31 -95 1 -9 8 -35 16 -57 34 -87 67 -249 89
-438 25 -214 16 -325 -34 -432 -94 -198 -139 -283 -224 -425 -65 -109 -105
-162 -253 -340 -194 -231 -419 -441 -633 -590 -43 -30 -261 -160 -311 -185
-235 -119 -243 -122 -400 -181 -181 -68 -312 -104 -570 -154 -63 -13 -187 -25
-310 -32 -310 -16 -523 2 -820 71 -47 11 -101 23 -120 26 -19 4 -57 15 -85 25
-27 10 -93 32 -145 49 -195 63 -328 125 -560 261 -356 208 -639 470 -935 864
-27 37 -59 78 -70 93 -27 35 -138 215 -172 278 -34 63 -119 246 -128 277 -4
13 -15 41 -25 63 -85 191 -177 551 -219 865 -20 147 -23 435 -7 641 16 207 37
320 89 484 32 100 32 100 102 128 160 63 392 193 552 309 18 13 49 34 68 48
293 204 688 590 873 854 142 204 292 441 292 463 0 10 21 33 30 33 3 0 57 -68
120 -152z"/>
<path fill="#ffffff" stroke="none" d="M19761 32391 c13 -10 42 -27 64 -38 41
-20 62 -32 172 -97 34 -20 65 -36 69 -36 4 0 30 -11 58 -24 80 -38 172 -76
184 -76 7 0 31 -9 54 -19 41 -18 89 -34 288 -94 102 -31 262 -64 345 -72 33
-4 94 -13 135 -21 177 -33 558 -44 880 -24 196 12 383 42 565 93 249 69 247
68 270 53 12 -8 25 -30 28 -48 4 -18 14 -58 23 -88 34 -112 32 -134 -31 -340
-22 -74 -52 -178 -101 -355 -14 -49 -33 -119 -44 -155 -20 -69 -56 -197 -96
-345 -53 -193 -67 -243 -89 -315 -13 -41 -35 -115 -50 -165 -14 -49 -46 -153
-70 -230 -23 -77 -55 -183 -69 -235 -15 -52 -34 -117 -43 -144 -9 -27 -22 -74
-29 -105 -23 -106 -53 -210 -68 -240 -9 -16 -21 -54 -27 -83 -6 -29 -27 -107
-46 -173 -34 -117 -45 -156 -78 -280 -61 -234 -114 -397 -128 -392 -16 5 -24
48 -26 125 0 34 -8 106 -16 160 -8 53 -21 169 -30 256 -9 87 -18 162 -20 166
-2 4 -14 83 -25 175 -11 92 -23 171 -25 175 -2 4 -11 78 -19 164 -9 86 -20
174 -25 194 -10 39 -34 245 -34 299 0 22 15 55 48 105 27 40 64 101 82 135 19
35 69 116 112 181 98 146 126 201 118 234 -4 14 -43 81 -88 149 -286 433 -329
493 -389 534 -42 29 -128 47 -299 64 -116 11 -141 4 -180 -45 -12 -15 -88 -97
-170 -183 -280 -293 -381 -420 -381 -478 0 -16 64 -140 100 -193 17 -25 55
-85 95 -150 12 -19 56 -87 99 -151 42 -64 78 -125 78 -135 2 -26 -19 -151 -42
-254 -50 -225 -70 -321 -80 -385 -22 -132 -37 -201 -53 -246 -9 -24 -21 -85
-26 -136 -6 -50 -17 -108 -25 -130 -7 -21 -28 -114 -46 -208 -17 -93 -39 -192
-48 -220 -8 -27 -20 -88 -26 -134 -7 -51 -16 -86 -24 -89 -14 -4 -62 91 -62
123 0 11 -7 45 -15 75 -54 192 -88 319 -124 470 -10 41 -25 98 -34 125 -8 28
-27 93 -42 145 -15 52 -36 122 -46 155 -10 33 -21 80 -25 105 -6 49 -33 151
-70 273 -13 43 -24 84 -24 90 0 7 -9 41 -19 77 -24 79 -60 209 -96 350 -15 58
-36 132 -46 165 -9 33 -22 80 -27 105 -5 25 -24 97 -42 160 -18 63 -41 144
-51 180 -10 36 -30 106 -44 155 -15 50 -34 122 -44 160 -11 39 -33 124 -51
190 -18 66 -41 156 -51 200 -10 44 -30 121 -44 170 -25 92 -33 124 -60 255
-15 74 -15 74 18 130 18 30 49 87 67 125 19 39 41 78 49 88 18 22 52 22 82 -2z"/>
<path fill="#ffffff" stroke="none" d="M19193 31913 c8 -10 24 -52 35 -93 57
-214 111 -411 125 -455 8 -27 27 -97 42 -155 15 -58 35 -130 45 -160 10 -30
21 -71 25 -90 4 -19 24 -91 45 -160 21 -69 46 -154 55 -190 16 -62 31 -117 90
-335 14 -55 35 -134 45 -175 10 -41 30 -118 44 -170 15 -52 35 -126 46 -165
10 -38 31 -110 45 -160 14 -49 32 -117 40 -150 8 -33 22 -82 30 -110 8 -27 21
-79 29 -115 22 -93 58 -228 96 -355 32 -110 39 -134 84 -300 13 -49 36 -133
50 -185 14 -52 31 -115 37 -140 6 -25 22 -81 34 -125 13 -44 35 -123 49 -175
15 -52 36 -124 46 -160 11 -36 26 -94 35 -130 35 -144 55 -219 80 -305 15 -49
33 -115 41 -145 47 -184 89 -340 125 -455 10 -33 21 -78 25 -100 4 -22 11 -48
16 -58 5 -9 18 -50 28 -90 11 -39 22 -83 26 -97 7 -25 7 -25 -21 0 -38 35 -92
119 -235 365 -10 17 -41 70 -69 118 -28 49 -68 114 -88 145 -20 32 -46 73 -58
92 -13 19 -45 73 -71 120 -27 47 -65 112 -86 145 -20 33 -77 124 -125 203 -48
79 -100 162 -115 185 -15 23 -45 74 -68 112 -23 39 -54 90 -70 115 -16 25 -58
97 -94 160 -36 63 -90 153 -120 200 -47 72 -91 144 -251 405 -61 100 -123 201
-147 238 -15 23 -44 71 -64 107 -21 36 -45 76 -54 90 -61 90 -100 159 -100
176 0 24 64 98 238 279 202 210 302 341 302 395 0 29 -53 131 -81 156 -28 25
-108 68 -164 88 -193 68 -475 197 -498 228 -19 25 -19 26 1 94 11 38 27 89 35
114 30 91 96 316 102 350 4 19 15 60 25 90 10 30 30 98 45 150 65 229 76 269
95 330 11 36 25 87 31 115 17 83 35 111 87 133 59 26 85 27 105 5z"/>
<path fill="#ffffff" stroke="none" d="M18644 31772 c5 -8 -19 -92 -49 -172
-7 -19 -27 -82 -44 -140 -18 -58 -40 -132 -50 -165 -11 -33 -31 -103 -46 -155
-53 -185 -77 -267 -119 -405 -80 -260 -86 -281 -86 -311 0 -38 46 -111 91
-145 19 -14 54 -33 79 -41 113 -40 137 -49 162 -63 14 -8 32 -15 39 -15 6 0
37 -12 68 -26 87 -41 173 -80 204 -92 15 -7 30 -19 33 -27 8 -19 -59 -95 -252
-290 -152 -154 -207 -232 -207 -294 0 -46 51 -162 108 -246 23 -33 111 -176
196 -318 85 -141 166 -276 181 -300 15 -23 32 -52 38 -65 5 -12 18 -35 28 -50
10 -15 31 -46 45 -69 15 -24 38 -60 50 -80 88 -141 253 -409 260 -422 4 -9 20
-35 35 -58 55 -87 198 -320 262 -428 22 -38 59 -99 80 -134 22 -34 40 -65 40
-67 0 -3 12 -23 27 -47 71 -112 234 -378 247 -402 11 -20 98 -160 148 -238 15
-23 37 -58 48 -77 11 -19 33 -54 48 -77 26 -41 144 -235 189 -311 30 -51 56
-94 113 -187 27 -44 69 -116 95 -160 57 -98 122 -207 195 -322 30 -48 58 -95
62 -105 16 -40 121 -157 155 -173 46 -22 100 -29 157 -21 84 13 164 101 284
314 63 111 62 110 103 172 20 30 44 70 54 89 9 19 32 55 50 81 18 25 51 79 74
120 49 86 117 201 145 245 82 127 110 172 160 260 32 55 70 119 84 142 15 24
63 100 106 170 111 179 117 189 172 273 27 41 56 87 64 102 24 43 179 297 219
358 20 30 65 103 101 163 36 59 77 126 92 150 15 23 44 71 64 107 21 36 67
110 104 165 97 147 154 237 168 265 7 14 25 45 41 70 17 25 66 108 110 185
143 247 192 328 239 397 158 231 204 330 184 397 -21 68 -77 144 -292 391 -89
103 -112 142 -93 161 5 5 29 15 53 23 25 8 77 27 115 41 39 15 90 34 115 42
138 45 256 105 289 145 29 35 37 101 23 173 -27 135 -67 279 -129 460 -19 55
-41 125 -49 155 -25 95 -54 192 -90 303 -19 59 -32 112 -29 117 10 15 40 12
66 -7 13 -10 49 -30 79 -45 366 -177 588 -292 800 -412 36 -21 70 -40 77 -44
7 -4 36 -23 65 -43 29 -19 91 -60 138 -90 265 -169 425 -333 520 -533 77 -163
127 -284 154 -366 8 -25 30 -90 49 -145 42 -122 76 -229 112 -355 15 -52 35
-117 45 -145 10 -27 32 -97 50 -155 17 -58 38 -121 45 -140 15 -40 62 -197 95
-315 12 -44 30 -107 41 -140 10 -33 25 -91 33 -130 9 -38 27 -110 41 -160 14
-49 34 -126 44 -170 20 -83 51 -211 76 -305 8 -30 21 -89 30 -130 8 -41 26
-124 40 -185 14 -60 34 -155 44 -210 11 -55 26 -129 35 -165 28 -121 93 -437
132 -640 14 -74 34 -171 44 -215 10 -44 25 -116 34 -160 8 -44 27 -134 41
-200 14 -66 33 -160 41 -210 8 -49 22 -112 29 -140 8 -27 19 -79 24 -115 6
-36 24 -130 41 -210 17 -80 37 -183 44 -230 8 -47 21 -112 29 -145 8 -33 18
-82 21 -110 4 -27 15 -93 26 -145 26 -129 63 -326 95 -500 14 -80 36 -193 47
-252 11 -58 18 -114 15 -122 -6 -14 -98 -16 -937 -16 -1056 0 -961 -8 -973 86
-6 46 -23 122 -62 289 -10 39 -21 95 -26 125 -5 30 -20 105 -34 165 -14 61
-34 151 -45 200 -11 50 -31 142 -44 205 -14 63 -28 133 -31 155 -4 22 -11 55
-17 72 -5 18 -18 77 -28 130 -10 54 -30 159 -45 233 -36 181 -72 376 -90 479
-8 47 -21 105 -29 130 -8 25 -18 64 -21 86 -4 22 -15 81 -25 130 -53 245 -96
463 -115 577 -8 47 -19 97 -24 111 -5 14 -15 54 -21 89 -6 34 -19 101 -30 148
-10 47 -31 144 -46 215 -33 159 -57 201 -135 235 -41 17 -66 21 -114 18 -77
-5 -129 -42 -167 -120 -26 -52 -26 -58 -33 -333 -3 -154 -10 -336 -15 -405 -5
-69 -14 -224 -20 -345 -16 -350 -30 -575 -40 -645 -5 -36 -14 -186 -20 -335
-6 -148 -15 -306 -20 -350 -5 -44 -14 -177 -20 -295 -6 -118 -15 -276 -20
-350 -13 -180 -28 -408 -36 -553 -4 -83 -10 -122 -21 -132 -13 -13 -193 -15
-1394 -15 -1255 0 -1383 1 -1411 16 -29 15 -92 71 -246 217 -35 33 -63 73 -83
116 -17 36 -46 95 -65 131 -48 92 -200 399 -278 565 -37 77 -80 165 -97 195
-16 30 -72 141 -124 245 -52 105 -116 228 -141 275 -26 47 -54 99 -63 115 -25
47 -110 187 -130 215 -10 14 -36 52 -57 84 -66 99 -209 237 -288 276 -65 32
-75 34 -170 35 -96 0 -105 -2 -168 -34 -100 -51 -155 -104 -192 -180 -29 -62
-31 -72 -30 -186 0 -123 19 -213 69 -330 22 -52 56 -133 89 -215 15 -36 36
-83 46 -105 11 -22 33 -74 51 -115 48 -116 180 -398 240 -511 45 -87 42 -95
-41 -103 -75 -8 -90 -4 -90 21 0 39 -46 86 -153 157 -62 40 -125 81 -142 90
-16 10 -69 41 -117 69 -48 29 -158 93 -245 143 -87 50 -230 133 -318 184 -275
160 -353 204 -652 361 -50 27 -113 62 -140 79 -26 16 -65 39 -85 50 -68 37
-69 42 -53 240 14 164 52 663 75 990 6 80 17 219 25 310 8 91 22 269 30 395 9
127 17 244 20 260 3 17 9 93 15 170 12 153 15 162 106 291 101 141 117 228 63
322 -24 43 -40 58 -82 78 -29 13 -66 24 -83 24 -42 0 -109 -24 -144 -52 -60
-49 -200 -240 -300 -413 -13 -22 -62 -98 -108 -170 -142 -217 -168 -259 -349
-558 -51 -84 -120 -195 -153 -247 -34 -52 -98 -155 -143 -228 -45 -73 -94
-152 -109 -175 -15 -23 -45 -73 -67 -112 -101 -175 -187 -300 -208 -303 -12
-2 -72 23 -136 57 -172 91 -248 94 -336 15 -113 -102 -99 -245 34 -333 48 -32
181 -105 290 -160 44 -22 91 -47 105 -55 14 -8 81 -47 150 -87 69 -39 156 -89
194 -111 38 -22 92 -53 120 -68 28 -15 96 -51 151 -80 55 -29 112 -61 127 -71
14 -11 30 -19 35 -19 5 0 19 -8 33 -17 13 -10 56 -36 96 -58 40 -22 132 -74
206 -115 196 -109 206 -115 288 -158 41 -22 116 -63 165 -92 105 -62 524 -298
575 -324 85 -45 318 -178 360 -207 14 -9 81 -49 150 -90 69 -40 131 -78 139
-85 16 -14 5 -26 -118 -129 -131 -109 -265 -290 -367 -495 -68 -136 -106 -244
-155 -435 -11 -44 -28 -102 -38 -130 -26 -71 -47 -181 -61 -320 -13 -123 -27
-165 -58 -165 -9 0 -86 34 -170 75 -83 41 -154 75 -157 75 -5 0 -90 40 -320
150 -77 36 -198 93 -270 126 -128 58 -382 185 -480 239 -27 15 -111 59 -185
97 -74 39 -175 92 -225 118 -90 47 -199 104 -460 240 -222 116 -333 176 -450
245 -18 11 -69 41 -112 66 -43 25 -118 70 -168 99 -49 29 -99 58 -110 64 -51
28 -368 222 -435 266 -41 27 -88 57 -103 65 -25 14 -211 136 -277 182 -162
113 -293 238 -373 356 -173 253 -246 530 -203 768 24 130 81 320 131 434 12
28 31 73 42 100 109 263 328 711 446 910 92 156 180 311 278 493 9 18 22 38
27 45 5 7 40 71 78 142 90 173 97 186 116 215 16 26 214 358 260 438 16 26 32
56 37 67 6 11 35 58 65 105 31 47 65 101 76 120 12 19 45 76 75 125 29 50 72
122 95 160 23 39 54 90 70 115 16 25 57 95 91 155 35 61 110 182 168 270 57
88 150 232 206 320 325 512 530 801 690 974 53 57 180 164 271 228 90 63 368
193 468 219 33 9 99 31 146 49 47 18 99 36 115 39 39 8 175 51 300 93 55 19
125 41 155 49 30 9 80 24 110 34 124 41 229 70 480 135 58 14 125 32 150 40
54 16 87 18 94 7z"/>
<path fill="#ffffff" stroke="none" d="M23300 31573 c63 -23 88 -48 95 -97 4
-22 17 -75 30 -116 13 -41 36 -115 50 -165 15 -49 35 -117 45 -150 10 -33 30
-107 45 -165 31 -120 61 -225 82 -290 8 -25 23 -73 33 -106 10 -34 23 -71 29
-82 16 -30 13 -67 -6 -84 -30 -25 -111 -60 -343 -145 -118 -43 -253 -116 -292
-158 -35 -37 -38 -45 -38 -98 0 -81 39 -154 143 -264 127 -134 327 -386 327
-411 0 -9 -11 -32 -23 -51 -13 -20 -57 -92 -97 -161 -40 -69 -92 -154 -114
-189 -61 -96 -207 -333 -272 -441 -57 -96 -65 -109 -146 -235 -24 -38 -61 -99
-82 -135 -20 -36 -55 -94 -76 -129 -22 -34 -40 -65 -40 -67 0 -2 -20 -33 -45
-70 -25 -36 -45 -67 -45 -70 0 -2 -29 -48 -64 -102 -35 -53 -71 -110 -80 -127
-9 -16 -30 -50 -46 -75 -16 -25 -39 -61 -50 -80 -28 -47 -104 -172 -165 -271
-82 -132 -94 -153 -109 -184 -8 -16 -52 -87 -98 -158 -46 -70 -96 -150 -113
-178 -50 -84 -52 -86 -67 -71 -10 10 -9 21 5 60 27 74 73 217 107 337 18 61
40 137 50 170 10 33 35 119 55 190 20 72 59 207 86 300 49 167 73 251 104 370
8 33 24 89 35 125 10 36 30 103 43 150 13 47 36 128 51 180 15 52 35 127 46
165 17 63 44 153 126 425 15 47 32 108 39 135 7 28 20 70 29 95 9 25 27 86 41
135 14 50 34 119 45 155 19 61 30 102 65 240 8 30 23 84 34 120 11 36 29 99
40 140 11 41 32 116 46 165 14 50 25 98 25 107 0 10 11 50 24 90 13 40 36 116
50 168 29 105 55 193 91 315 14 44 36 121 50 170 14 50 34 119 45 155 10 36
22 81 25 100 4 19 15 62 25 95 10 33 30 101 45 150 33 111 43 135 52 135 4 0
28 -8 53 -17z"/>
<path fill="#ffffff" stroke="none" d="M14064 28194 c22 -8 20 -32 -6 -74 -12
-19 -48 -87 -80 -150 -33 -63 -65 -122 -72 -130 -17 -19 -157 -272 -284 -510
-25 -47 -63 -119 -85 -160 -42 -79 -117 -221 -147 -280 -76 -147 -179 -368
-225 -485 -128 -325 -168 -450 -194 -621 -47 -294 -17 -522 107 -829 52 -128
159 -304 224 -368 23 -22 23 -44 1 -54 -10 -4 -445 -6 -966 -3 -875 5 -950 6
-961 22 -8 11 -16 111 -25 310 -6 161 -16 325 -21 363 -5 39 -16 198 -25 355
-9 157 -20 312 -25 345 -5 33 -14 150 -20 260 -6 110 -15 250 -20 310 -5 61
-17 247 -25 415 -9 168 -20 366 -25 440 -7 110 -6 150 6 210 35 168 120 280
273 359 66 34 252 63 526 81 83 6 179 14 215 19 36 5 133 15 215 21 83 6 229
20 325 30 96 10 225 22 285 25 61 4 132 11 158 16 26 5 132 15 235 24 103 8
219 20 257 26 39 6 135 16 215 23 80 7 146 14 147 15 1 0 8 -2 17 -5z"/>
<path fill="#ffffff" stroke="none" d="M17026 26888 c-4 -68 -11 -163 -16
-213 -10 -89 -20 -228 -40 -540 -16 -255 -42 -477 -57 -482 -8 -3 -31 6 -51
21 -21 14 -41 26 -44 26 -5 0 -129 71 -198 115 -192 120 -230 146 -240 166 -9
17 -1 35 53 117 35 53 72 111 81 127 9 17 20 37 25 45 5 8 42 69 82 135 40 66
83 138 97 160 14 22 35 56 47 75 12 19 44 69 70 110 104 161 133 206 149 233
9 15 24 27 33 27 14 0 15 -13 9 -122z"/>
<path fill="#ffffff" stroke="none" d="M37788 26907 c6 -7 13 -57 17 -112 11
-184 62 -406 115 -504 5 -9 18 -38 30 -66 20 -48 20 -50 2 -75 -25 -33 -150
-139 -236 -198 -97 -67 -166 -112 -170 -112 -2 0 -34 -18 -71 -41 -37 -22 -84
-47 -105 -54 -21 -7 -46 -18 -56 -24 -33 -19 -105 -42 -239 -78 -130 -34 -130
-34 -315 -30 -193 4 -293 22 -425 75 -146 58 -314 224 -366 361 -17 46 -17 47
8 106 61 147 83 237 93 391 14 200 20 256 33 272 13 16 101 10 207 -14 118
-27 313 -37 590 -30 146 4 285 11 310 15 25 5 79 14 120 20 131 21 354 73 390
93 41 21 54 22 68 5z"/>
<path fill="#ffffff" stroke="none" d="M35636 25852 c108 -212 255 -363 458
-471 89 -48 166 -77 323 -123 108 -32 109 -32 328 -31 121 1 243 6 270 11 274
56 331 74 562 184 57 26 105 48 108 48 6 0 109 65 225 143 134 90 223 160 316
249 50 49 99 88 108 88 9 0 81 -33 159 -74 78 -40 176 -88 217 -105 41 -18 93
-41 116 -51 23 -11 45 -20 49 -20 28 0 406 -192 571 -290 33 -19 66 -38 74
-41 8 -4 51 -32 95 -63 44 -30 110 -76 148 -102 143 -99 327 -303 470 -522
114 -173 118 -180 188 -322 34 -69 77 -155 96 -192 19 -37 43 -92 53 -123 11
-30 29 -79 40 -107 39 -105 122 -346 161 -468 23 -69 47 -141 54 -160 7 -19
21 -57 30 -85 17 -52 46 -131 89 -250 35 -94 76 -218 116 -345 18 -58 49 -157
70 -220 21 -63 52 -164 69 -225 39 -134 80 -271 93 -306 5 -14 18 -59 29 -100
11 -41 31 -114 45 -164 63 -229 76 -274 89 -330 8 -33 22 -85 30 -115 22 -81
95 -375 111 -450 8 -36 21 -87 29 -115 21 -76 64 -263 74 -325 5 -30 16 -86
26 -125 37 -157 48 -204 65 -285 17 -82 28 -134 70 -340 39 -193 102 -580 116
-705 3 -33 12 -103 20 -155 37 -255 -8 -606 -100 -770 -67 -120 -155 -217
-258 -285 -24 -16 -54 -36 -68 -45 -34 -23 -164 -80 -183 -80 -8 0 -34 -7 -58
-16 -110 -39 -454 -34 -639 9 -197 46 -420 118 -600 193 -86 35 -385 189 -480
246 -41 25 -118 70 -170 100 -52 30 -187 112 -300 183 -113 71 -263 164 -335
208 -134 82 -252 159 -363 237 -90 63 -170 118 -238 165 -33 22 -113 78 -179
125 -66 47 -134 95 -151 105 -17 11 -47 31 -68 44 -20 13 -42 33 -48 44 -9 18
-7 24 11 36 218 154 340 313 419 549 24 71 26 92 28 276 2 148 6 201 15 207 7
4 29 1 48 -8 20 -8 63 -23 96 -33 60 -18 244 -82 405 -140 47 -17 105 -37 130
-44 25 -7 55 -18 65 -23 11 -6 43 -15 70 -22 28 -6 66 -18 85 -25 40 -16 143
-51 210 -71 52 -16 292 -101 395 -140 39 -14 93 -35 120 -45 133 -50 186 -71
255 -100 41 -17 116 -47 165 -66 50 -19 133 -52 185 -73 52 -21 123 -46 158
-56 60 -18 65 -18 117 -1 67 21 104 51 133 109 27 54 28 81 2 155 -21 61 -55
97 -125 135 -61 32 -165 77 -215 92 -25 7 -74 24 -110 38 -36 13 -117 43 -180
66 -323 117 -353 134 -366 210 -16 95 -60 274 -89 361 -26 80 -49 153 -81 255
-15 50 -45 144 -67 210 -22 66 -48 154 -57 195 -19 79 -49 184 -74 260 -16 51
-37 121 -96 325 -22 77 -51 176 -65 220 -56 187 -78 263 -90 315 -7 30 -20 75
-28 100 -8 25 -26 86 -41 135 -15 50 -36 115 -46 145 -11 30 -22 71 -26 90
-10 52 -62 154 -92 182 -32 30 -101 58 -142 58 -54 0 -108 -30 -151 -84 -41
-51 -41 -51 -36 -136 3 -47 12 -102 21 -122 9 -21 21 -61 27 -90 11 -54 38
-147 91 -318 16 -52 36 -118 43 -147 7 -29 20 -71 28 -95 9 -24 27 -81 40
-128 14 -47 37 -125 52 -175 58 -198 74 -253 94 -325 25 -93 60 -222 96 -360
15 -58 35 -132 45 -165 10 -33 31 -100 46 -150 39 -132 73 -240 100 -323 13
-40 24 -81 24 -92 0 -28 -26 -36 -64 -21 -39 16 -523 182 -761 261 -99 33
-193 65 -210 71 -16 6 -59 19 -95 29 -36 11 -96 28 -135 39 -38 12 -108 31
-155 44 -73 20 -141 50 -295 130 -16 9 -52 26 -80 38 -27 12 -77 34 -110 49
-246 113 -555 182 -874 196 -112 4 -169 1 -321 -19 -102 -14 -228 -35 -281
-48 -91 -21 -98 -22 -122 -6 -14 9 -69 81 -122 159 -53 79 -110 161 -126 183
-16 22 -43 60 -60 84 -16 24 -54 78 -83 120 -30 42 -90 130 -135 196 -147 218
-325 474 -550 793 -55 77 -310 461 -364 547 -25 39 -28 51 -22 87 7 42 45 151
65 185 52 94 86 242 75 329 -16 131 -162 202 -283 140 -66 -34 -104 -96 -164
-266 -16 -47 -36 -91 -44 -99 -11 -12 -85 -14 -476 -12 -302 2 -467 6 -475 13
-18 15 -16 45 6 103 11 27 33 88 51 135 17 47 35 94 40 105 5 11 20 49 34 85
82 216 99 259 118 300 25 55 85 173 111 220 11 19 29 53 40 75 98 197 356 524
543 687 153 133 343 269 466 333 126 66 253 128 318 155 41 17 95 39 120 50
25 10 106 42 180 71 74 28 155 60 180 69 25 10 63 22 85 26 22 4 58 15 80 25
22 11 46 18 54 16 8 -1 43 -57 77 -125z"/>
<path fill="#ffffff" stroke="none" d="M19362 25617 c29 -22 161 -198 199
-267 11 -19 31 -53 44 -75 13 -22 34 -58 45 -80 12 -22 33 -62 49 -90 36 -65
258 -499 379 -740 53 -104 106 -206 119 -225 42 -62 24 -93 -38 -67 -19 8 -59
20 -89 27 -30 7 -65 19 -77 26 -12 8 -48 23 -78 35 -42 15 -64 31 -86 61 -16
23 -29 46 -29 53 0 12 -2 17 -158 335 -60 124 -123 254 -139 290 -50 109 -83
187 -83 195 0 6 -48 123 -71 170 -5 11 -27 70 -48 130 -22 61 -47 128 -56 149
-39 91 33 135 117 73z"/>
<path fill="#ffffff" stroke="none" d="M24444 25217 c14 -46 30 -117 36 -158
6 -41 17 -96 24 -124 8 -27 19 -82 25 -122 6 -39 15 -83 20 -96 6 -14 15 -54
21 -89 6 -34 20 -101 30 -148 11 -47 31 -139 46 -205 14 -66 34 -156 44 -200
11 -44 26 -114 34 -155 9 -41 27 -127 42 -190 35 -150 40 -200 23 -211 -8 -5
-118 -9 -246 -9 -217 0 -233 1 -242 19 -7 12 -7 57 -1 132 6 63 14 197 19 299
15 288 30 511 47 680 8 85 19 265 24 398 9 221 13 262 25 262 2 0 15 -37 29
-83z"/>
<path fill="#ffffff" stroke="none" d="M13711 24225 c161 -113 340 -235 434
-295 17 -10 55 -32 85 -47 30 -16 69 -37 85 -47 17 -11 46 -29 65 -41 19 -12
67 -43 107 -69 40 -25 75 -46 78 -46 4 0 21 -11 39 -25 18 -14 37 -25 42 -26
16 0 148 -93 152 -106 3 -10 -113 -13 -557 -13 -561 0 -561 0 -575 23 -10 16
-17 93 -26 277 -7 140 -15 295 -17 343 -5 90 -1 117 16 117 5 0 37 -20 72 -45z"/>
<path fill="#ffffff" stroke="none" d="M13118 24197 c18 -14 15 -31 -9 -53
-35 -31 -162 -184 -219 -264 -30 -41 -90 -120 -135 -175 -44 -55 -120 -154
-168 -220 -48 -66 -119 -160 -157 -210 -39 -49 -79 -101 -88 -115 -9 -14 -46
-64 -82 -112 -36 -48 -96 -130 -135 -183 -111 -152 -233 -303 -260 -321 -22
-14 -97 -15 -767 -9 -409 4 -1116 10 -1573 14 -747 5 -830 8 -833 22 -2 10
118 137 310 330 172 173 495 501 717 729 495 507 548 559 586 576 24 11 284
12 1415 7 889 -4 1389 -9 1398 -16z"/>
<path fill="#ffffff" stroke="none" d="M42775 24155 c72 -8 173 -21 225 -29
52 -8 142 -20 200 -26 58 -6 130 -15 160 -20 30 -5 102 -14 160 -20 58 -7 155
-20 215 -30 61 -10 137 -21 170 -25 104 -10 357 -45 440 -60 44 -8 152 -21
239 -30 87 -9 162 -17 165 -19 3 -2 69 -12 146 -21 157 -19 173 -26 275 -113
111 -95 166 -189 196 -333 16 -74 16 -98 6 -185 -7 -54 -19 -191 -27 -304 -8
-113 -22 -279 -30 -370 -27 -284 -54 -601 -60 -695 -4 -49 -13 -144 -20 -210
-8 -66 -19 -192 -25 -280 -6 -88 -17 -221 -25 -295 -8 -74 -17 -187 -20 -250
-3 -63 -15 -198 -25 -300 -10 -102 -21 -234 -25 -295 -3 -60 -12 -164 -20
-230 -7 -66 -16 -163 -20 -215 -3 -52 -15 -183 -26 -290 -11 -107 -26 -274
-34 -370 -9 -96 -19 -211 -25 -255 -5 -44 -14 -154 -19 -245 -6 -91 -16 -192
-21 -225 -5 -33 -14 -136 -20 -230 -6 -93 -14 -195 -20 -225 -5 -30 -16 -138
-25 -240 -8 -102 -20 -234 -25 -295 -19 -215 -49 -532 -59 -640 -6 -60 -15
-184 -21 -275 -6 -91 -15 -192 -20 -225 -5 -33 -14 -148 -20 -255 -6 -107 -18
-234 -26 -283 -7 -48 -14 -115 -14 -150 0 -34 -12 -170 -26 -302 -14 -132 -29
-327 -34 -434 -6 -107 -12 -202 -15 -210 -2 -9 -11 -135 -20 -281 -19 -322
-29 -416 -45 -435 -17 -21 -71 -19 -245 9 -83 13 -179 27 -215 31 -36 4 -101
15 -145 25 -44 10 -105 21 -135 25 -30 4 -82 13 -115 20 -33 7 -89 16 -125 20
-36 3 -99 14 -140 25 -41 10 -100 21 -130 24 -30 4 -104 16 -165 26 -152 27
-354 60 -455 75 -86 13 -195 32 -349 61 -81 15 -157 27 -486 74 -82 12 -161
29 -173 37 -22 14 -23 19 -18 81 9 100 -10 571 -29 702 -33 233 -86 556 -100
605 -8 28 -20 79 -28 115 -8 36 -29 119 -47 185 -18 66 -40 156 -50 200 -18
77 -28 116 -84 325 -13 52 -46 162 -71 243 -52 166 -52 171 18 182 38 5 155
33 232 55 115 33 242 91 363 167 54 34 191 153 234 205 103 122 232 347 253
443 4 17 13 47 21 69 22 58 54 275 60 411 9 180 -31 519 -106 910 -10 55 -22
120 -25 145 -3 25 -14 86 -24 135 -11 50 -31 151 -46 225 -15 74 -35 176 -45
225 -10 50 -21 108 -25 130 -9 56 -40 194 -114 505 -11 47 -23 101 -26 120 -4
19 -15 64 -25 100 -31 114 -69 261 -104 405 -19 77 -43 174 -55 215 -11 41
-29 109 -39 150 -11 41 -34 122 -52 180 -76 252 -75 245 -17 290 256 204 404
373 565 645 126 212 173 328 237 580 39 155 47 204 57 350 8 120 8 210 1 305
-5 74 -6 145 -2 158 10 26 13 26 184 7z"/>
<path fill="#ffffff" stroke="none" d="M31375 23931 c250 -62 413 -147 623
-325 49 -41 81 -76 80 -86 -3 -12 -25 -15 -136 -17 -145 -2 -179 -12 -233 -65
-38 -39 -84 -106 -127 -187 -45 -85 -164 -263 -219 -328 -119 -141 -294 -245
-478 -284 -154 -33 -409 -34 -570 -1 -260 53 -393 130 -452 262 -38 84 -39
138 -8 265 31 130 53 167 182 310 233 258 525 416 883 479 14 2 102 3 195 2
136 -2 188 -7 260 -25z"/>
<path fill="#ffffff" stroke="none" d="M13310 23794 c0 -52 -4 -63 -55 -138
-111 -165 -135 -197 -560 -762 -60 -80 -117 -156 -125 -167 -8 -12 -33 -45
-55 -74 -22 -29 -59 -78 -83 -110 -306 -411 -343 -458 -361 -458 -12 0 -18 16
-24 67 -10 80 -8 84 82 200 80 102 240 314 263 348 9 14 49 66 88 115 99 127
402 526 613 810 107 143 179 225 198 225 16 0 19 -8 19 -56z"/>
<path fill="#ffffff" stroke="none" d="M19648 23775 c45 -8 86 -16 90 -19 5
-3 40 -14 78 -25 88 -25 181 -57 219 -76 17 -8 63 -28 104 -46 241 -102 455
-263 623 -469 100 -123 149 -255 150 -405 1 -82 -2 -96 -31 -156 -55 -113
-110 -156 -361 -285 -69 -35 -138 -80 -214 -140 -91 -70 -201 -123 -356 -172
-79 -24 -98 -26 -260 -26 -150 1 -187 4 -255 23 -207 58 -333 109 -498 202
-131 74 -393 248 -454 303 -72 65 -80 94 -58 215 9 53 23 116 30 141 8 25 19
71 24 103 6 31 16 67 22 79 7 13 20 48 30 78 59 181 110 283 209 415 129 170
171 198 360 232 250 45 407 53 548 28z"/>
<path fill="#ffffff" stroke="none" d="M13328 23291 c2 -41 -1 -86 -6 -100 -9
-26 -41 -71 -267 -375 -66 -89 -140 -190 -165 -224 -49 -68 -157 -212 -248
-331 -69 -88 -162 -215 -279 -376 -47 -66 -103 -140 -123 -165 -37 -47 -47
-61 -103 -145 -19 -27 -41 -56 -49 -63 -28 -23 -41 9 -37 96 4 74 6 82 51 148
65 95 273 381 448 614 226 302 486 652 512 688 13 18 34 48 48 67 210 286 213
288 218 166z"/>
<path fill="#ffffff" stroke="none" d="M8503 23080 c141 0 179 -3 183 -14 3
-8 -77 -98 -209 -232 -309 -315 -323 -333 -385 -489 -59 -147 -76 -225 -108
-515 -19 -167 -14 -435 11 -585 8 -49 20 -124 26 -165 6 -41 24 -122 41 -180
16 -58 35 -130 42 -160 49 -209 109 -311 203 -345 86 -31 534 -39 2163 -39
1443 -1 1537 0 1562 16 24 16 209 257 351 456 26 37 84 117 127 177 44 61 99
137 122 170 23 33 73 103 112 156 39 53 143 194 231 314 88 120 207 281 265
359 58 77 134 182 170 231 35 50 82 113 105 140 58 70 116 162 133 209 11 30
16 103 20 259 4 201 6 218 23 228 13 6 349 9 992 7 972 -3 972 -3 1002 -24 17
-12 41 -25 55 -29 14 -4 30 -11 35 -16 6 -4 91 -49 190 -99 99 -51 185 -96
190 -100 6 -4 55 -30 110 -58 55 -28 134 -67 175 -88 41 -21 111 -56 155 -77
44 -21 87 -43 95 -48 8 -5 34 -18 56 -28 23 -11 120 -58 216 -105 96 -47 178
-86 183 -86 4 0 19 -9 34 -19 15 -11 40 -23 57 -27 54 -13 476 -218 498 -243
17 -19 9 -51 -77 -301 -30 -85 -83 -243 -120 -351 -36 -107 -70 -206 -75 -220
-6 -13 -25 -71 -42 -129 -18 -58 -38 -121 -45 -140 -8 -19 -28 -82 -46 -140
-17 -58 -47 -145 -67 -195 -19 -49 -43 -115 -53 -145 -9 -30 -29 -86 -44 -125
-15 -38 -33 -90 -40 -115 -12 -43 -33 -105 -108 -325 -19 -55 -41 -120 -49
-145 -8 -25 -57 -169 -108 -320 -51 -151 -99 -295 -107 -320 -8 -25 -23 -67
-33 -95 -10 -27 -33 -97 -50 -155 -18 -58 -38 -121 -45 -140 -20 -55 -55 -161
-69 -210 -7 -25 -20 -58 -28 -75 -9 -16 -32 -77 -51 -135 -20 -58 -52 -150
-71 -205 -18 -55 -50 -149 -70 -210 -50 -154 -170 -506 -202 -590 -14 -38 -34
-99 -44 -135 -10 -36 -33 -105 -50 -155 -44 -127 -33 -189 43 -236 32 -19 94
-19 6143 -17 6110 3 6110 3 6153 31 23 15 49 44 59 63 16 35 16 37 -16 127
-18 51 -39 112 -47 137 -15 46 -40 118 -95 270 -17 47 -37 105 -45 130 -8 25
-27 81 -43 125 -39 108 -88 252 -101 295 -5 19 -35 107 -66 195 -30 88 -71
207 -90 265 -120 362 -147 442 -171 505 -14 39 -34 97 -44 130 -11 33 -42 125
-70 205 -28 80 -60 170 -70 200 -10 30 -44 127 -74 215 -31 88 -94 273 -141
410 -46 138 -96 282 -110 320 -27 73 -119 346 -174 520 -18 55 -49 150 -71
210 -45 132 -116 343 -135 405 -8 25 -28 83 -45 130 -17 47 -37 105 -45 130
-7 25 -28 83 -45 130 -29 80 -99 282 -136 395 -9 28 -24 73 -34 100 -10 28
-30 91 -45 140 -46 154 -95 243 -150 273 -28 16 -223 17 -2500 18 -1358 0
-2477 1 -2485 2 -33 4 -40 20 -46 92 -4 64 -14 105 -38 161 -4 10 -1 23 8 32
14 13 442 15 4039 16 3235 1 4026 -1 4034 -11 6 -7 13 -62 16 -123 6 -118 28
-194 86 -297 121 -215 405 -374 771 -433 266 -43 450 -44 666 -4 403 73 652
245 906 626 58 87 109 168 112 180 4 12 19 32 33 43 25 20 37 20 1001 20 1129
0 975 32 1157 -240 133 -199 316 -465 371 -540 23 -30 119 -172 216 -315 173
-259 211 -314 267 -390 16 -22 50 -69 75 -105 25 -36 75 -105 111 -155 123
-171 315 -461 315 -476 0 -9 -17 -27 -37 -40 -259 -169 -354 -263 -451 -439
-72 -132 -101 -211 -113 -313 -29 -231 45 -467 195 -626 51 -53 201 -171 218
-171 6 0 22 -8 36 -18 27 -18 113 -50 249 -91 152 -46 370 -51 733 -15 85 8
204 17 263 21 108 6 108 6 148 -33 22 -21 66 -76 97 -122 31 -46 69 -100 84
-120 14 -20 46 -68 70 -107 23 -38 74 -114 113 -169 38 -54 83 -117 99 -140
16 -22 66 -93 111 -156 91 -127 138 -195 280 -405 52 -77 136 -201 187 -276
51 -75 137 -201 191 -280 54 -79 122 -178 151 -219 135 -193 185 -266 283
-415 58 -88 144 -217 192 -287 111 -165 115 -172 108 -190 -5 -14 -205 -16
-1849 -22 -1014 -3 -8555 -8 -16758 -12 -8203 -3 -15385 -7 -15959 -10 -689
-2 -1050 0 -1062 7 -30 15 -23 47 28 123 195 296 345 516 423 621 37 50 99
137 139 195 93 136 227 328 286 410 25 36 112 158 193 271 81 114 181 253 222
309 119 163 169 233 186 264 8 15 50 75 92 133 42 57 117 162 165 231 84 122
136 195 229 328 24 33 72 100 108 148 36 49 85 116 110 150 25 33 92 129 149
211 57 83 149 211 204 285 122 165 132 179 259 360 55 80 119 170 142 200 23
30 57 80 76 110 38 60 395 560 504 705 37 50 96 133 132 185 35 52 82 120 103
150 22 30 82 116 132 190 51 74 101 146 111 160 55 72 204 279 273 380 43 63
109 156 145 205 36 50 112 158 168 240 62 91 132 180 177 225 75 75 75 75 268
81 105 3 201 4 212 2 11 -1 100 -3 198 -3z"/>
<path fill="#ffffff" stroke="none" d="M13358 22767 c4 -48 -27 -103 -136
-239 -46 -57 -119 -157 -163 -223 -78 -117 -145 -211 -332 -465 -124 -168
-161 -219 -191 -260 -14 -19 -74 -101 -133 -182 -59 -81 -133 -184 -163 -229
-139 -205 -163 -220 -168 -107 -2 48 2 77 14 100 15 30 175 245 340 458 36 47
111 146 166 220 137 184 159 214 188 255 14 20 36 51 50 70 14 19 35 49 48 67
13 18 56 77 95 130 40 54 106 143 147 199 151 206 190 250 213 247 18 -2 23
-11 25 -41z"/>
<path fill="#ffffff" stroke="none" d="M26240 22484 c16 -16 145 -381 209
-589 11 -33 33 -96 51 -140 17 -44 36 -96 42 -115 16 -56 113 -342 168 -500
28 -80 60 -170 70 -200 10 -30 53 -154 95 -275 42 -121 84 -249 95 -285 20
-70 44 -144 65 -200 7 -19 27 -82 45 -140 17 -58 36 -116 41 -129 6 -14 39
-111 75 -215 35 -105 78 -229 95 -276 56 -157 80 -225 94 -270 7 -25 26 -79
41 -120 42 -116 133 -380 149 -430 8 -25 60 -178 115 -340 56 -162 108 -317
115 -343 18 -62 53 -172 71 -219 7 -21 43 -124 78 -230 36 -106 79 -231 96
-278 42 -115 52 -150 54 -185 1 -30 1 -30 -239 -37 -333 -10 -11476 -4 -11497
6 -10 4 -18 15 -18 23 0 9 24 88 54 177 30 88 57 177 61 196 4 19 17 58 29 85
13 28 33 84 45 125 13 41 31 98 41 125 10 28 33 97 51 155 42 136 165 505 229
690 28 80 71 204 95 275 24 72 88 256 141 410 53 154 104 309 115 345 10 36
32 103 49 150 17 47 79 229 137 405 58 176 132 399 165 495 32 96 65 195 73
220 8 25 28 83 45 130 101 280 265 780 283 862 5 26 19 57 30 69 18 19 27 21
88 16 38 -3 83 -2 101 4 34 9 68 4 68 -11 0 -4 -21 -33 -46 -64 -30 -37 -44
-64 -42 -79 3 -21 7 -22 94 -22 75 0 100 4 143 24 64 30 83 20 62 -32 -40 -97
-71 -209 -77 -276 -4 -42 -11 -81 -16 -88 -5 -7 -44 -20 -86 -29 -151 -33
-277 -124 -318 -230 -34 -90 11 -125 114 -88 103 37 195 89 258 148 63 57 67
59 80 41 8 -10 14 -29 14 -42 0 -13 11 -50 25 -82 13 -33 27 -77 31 -98 6 -40
-10 -151 -24 -165 -5 -5 -42 -12 -84 -17 -41 -5 -83 -13 -94 -18 -10 -6 -36
-14 -58 -17 -43 -8 -152 -59 -207 -97 -44 -30 -99 -92 -99 -111 0 -29 24 -38
106 -38 48 0 99 6 125 16 24 8 70 21 101 29 48 11 59 11 68 0 16 -19 3 -39
-67 -106 -38 -37 -88 -72 -146 -100 -169 -84 -227 -144 -227 -237 0 -46 -5
-60 -30 -88 -51 -59 -62 -152 -26 -223 13 -23 92 -102 159 -157 16 -13 28 -35
32 -60 3 -21 11 -62 17 -90 16 -79 -6 -95 -72 -51 -61 40 -185 86 -251 93 -56
5 -67 3 -91 -16 -50 -39 -32 -114 49 -201 66 -72 153 -111 252 -115 81 -3 99
-15 76 -50 -8 -12 -30 -52 -50 -90 -20 -38 -43 -76 -50 -84 -7 -8 -31 -41 -53
-73 -65 -96 -181 -227 -200 -227 -13 0 -27 17 -43 52 -32 70 -128 165 -208
206 -95 48 -150 42 -170 -20 -17 -56 -24 -170 -12 -214 13 -50 77 -116 171
-177 36 -23 67 -50 68 -61 4 -16 -18 -72 -78 -201 -31 -68 -52 -166 -54 -255
-1 -101 -12 -109 -75 -55 -52 43 -130 67 -223 69 -59 1 -72 -2 -84 -19 -31
-41 5 -155 69 -223 59 -62 171 -102 290 -102 30 0 44 -7 67 -31 16 -18 31 -43
35 -57 3 -14 15 -38 26 -53 10 -15 19 -30 19 -34 0 -17 80 -99 130 -133 151
-104 246 -125 550 -120 261 4 250 10 170 -99 -83 -110 -66 -139 70 -122 176
22 336 123 403 254 8 17 23 38 34 47 21 19 146 61 303 103 58 15 134 35 170
46 215 60 568 107 609 80 20 -13 7 -37 -26 -45 -51 -13 -167 -88 -223 -146
-30 -30 -68 -81 -84 -113 -27 -54 -28 -58 -12 -82 21 -31 65 -33 186 -6 179
40 285 119 353 263 21 44 44 79 55 82 35 11 333 -43 427 -78 22 -8 72 -24 110
-35 122 -35 135 -62 39 -80 -87 -17 -183 -69 -247 -134 -64 -66 -78 -100 -54
-125 24 -23 213 -20 338 7 154 32 224 65 297 140 70 71 59 69 207 41 64 -11
255 -11 320 0 28 5 84 14 125 20 151 23 286 64 454 139 37 17 77 31 87 31 11
0 48 -14 82 -31 71 -36 203 -84 262 -94 22 -4 48 -12 59 -17 31 -16 243 -48
361 -54 76 -4 145 -1 223 10 62 9 123 16 135 16 14 0 46 -22 82 -58 110 -105
282 -162 493 -162 152 0 166 21 82 127 -41 51 -64 69 -124 98 -42 20 -103 41
-138 46 -71 11 -73 12 -65 33 6 14 87 42 187 64 25 6 86 25 135 42 82 28 264
70 308 70 12 0 30 -26 59 -87 50 -106 117 -177 207 -223 54 -27 128 -47 293
-77 18 -3 33 2 48 17 25 25 23 35 -27 138 -45 93 -114 157 -217 202 -76 34
-93 53 -57 65 30 9 252 -13 360 -36 214 -46 633 -153 669 -172 13 -6 35 -34
49 -62 41 -81 147 -178 238 -220 76 -34 164 -55 237 -55 28 0 40 5 49 21 9 18
5 32 -21 83 -18 33 -41 72 -51 85 -40 50 -17 67 63 45 35 -9 106 -14 206 -14
227 0 342 34 489 145 86 64 128 116 158 195 14 37 34 74 43 83 11 9 50 17 105
21 94 7 192 40 235 79 74 68 117 210 76 251 -37 38 -226 -4 -315 -70 -58 -42
-69 -35 -69 47 0 39 -7 96 -16 127 -30 106 -84 264 -104 302 -11 22 -20 46
-20 55 0 8 25 31 56 51 125 80 184 172 184 287 0 98 -32 151 -90 149 -40 -1
-156 -71 -206 -124 -65 -68 -74 -87 -74 -150 0 -73 -14 -75 -66 -10 -21 26
-70 83 -109 127 -89 100 -132 160 -190 270 -67 128 -68 127 70 144 44 6 96 15
116 21 92 26 179 134 179 222 0 77 -46 99 -153 74 -80 -19 -141 -49 -222 -110
-52 -41 -61 -44 -74 -31 -13 13 -12 25 7 103 12 49 22 95 22 103 0 8 43 60 95
117 62 67 98 116 104 139 13 47 -2 115 -34 157 -18 24 -25 45 -25 79 0 58 -11
86 -51 132 -28 31 -129 105 -145 105 -3 0 -41 21 -84 46 -108 62 -206 175
-166 190 19 7 178 -23 211 -40 36 -19 146 -21 163 -4 26 26 12 56 -50 113
-101 91 -158 115 -307 127 -163 13 -168 17 -177 143 -5 72 -3 99 11 135 9 25
25 72 34 104 27 92 40 93 112 13 76 -84 148 -123 255 -138 112 -15 131 9 72
98 -73 111 -154 173 -286 218 -46 15 -87 35 -91 44 -5 9 -8 57 -8 107 -1 82
-4 98 -37 173 -29 66 -34 86 -25 97 13 16 44 10 71 -14 12 -10 29 -13 52 -9
18 3 50 2 70 -3 88 -20 101 21 28 93 -80 79 -131 99 -297 113 -77 7 -93 17
-223 137 -84 78 -175 118 -327 145 -66 12 -175 24 -243 28 -71 4 -126 12 -130
18 -4 6 -7 33 -7 60 0 45 -2 50 -29 59 -67 22 -248 -88 -262 -161 -9 -42 -32
-61 -90 -72 -27 -4 -114 -23 -194 -40 -162 -36 -373 -61 -407 -49 -33 12 -29
24 20 58 103 71 142 145 97 186 -18 17 -25 17 -78 5 -113 -27 -208 -90 -309
-205 -21 -24 -26 -25 -95 -19 -40 4 -119 22 -175 40 -56 19 -117 34 -136 34
-41 0 -65 21 -44 39 8 6 55 31 106 56 86 42 92 47 89 73 -3 26 -6 27 -63 30
-33 2 -105 -2 -159 -8 -101 -12 -151 -30 -213 -76 -31 -23 -38 -24 -210 -25
-98 0 -198 -4 -223 -9 -114 -23 -163 -35 -279 -67 -139 -40 -174 -40 -252 1
-27 14 -76 28 -111 32 -35 4 -81 15 -103 25 -23 11 -64 19 -97 19 -31 0 -79 4
-105 10 -26 5 -86 14 -132 19 -59 6 -89 14 -102 28 -24 24 -43 118 -29 144 10
18 38 19 1038 22 565 2 1641 2 2390 1 1322 -1 1364 -2 1382 -20z"/>
<path fill="#ffffff" stroke="none" d="M24935 22330 c11 -18 -23 -58 -60 -70
-42 -14 -50 -10 -42 23 9 34 87 71 102 47z"/>
<path fill="#ffffff" stroke="none" d="M23330 22295 c0 -11 -12 -15 -44 -15
-24 0 -51 -3 -60 -6 -9 -3 -16 -2 -16 4 0 14 47 30 88 31 22 1 32 -4 32 -14z"/>
<path fill="#ffffff" stroke="none" d="M24080 22257 c0 -29 -136 -127 -177
-127 -29 0 -40 24 -22 47 8 9 41 34 74 55 61 39 125 51 125 25z"/>
<path fill="#ffffff" stroke="none" d="M10144 22230 c1001 -7 1545 -14 1557
-21 16 -8 19 -21 19 -84 0 -61 -3 -76 -17 -83 -10 -4 -767 -5 -1683 -2 -1665
5 -1665 5 -1668 33 -4 34 44 153 67 168 9 5 52 7 101 4 47 -3 777 -10 1624
-15z"/>
<path fill="#ffffff" stroke="none" d="M21648 22208 c2 -13 -12 -25 -52 -45
-54 -26 -56 -26 -76 -8 -25 22 -26 50 -2 64 9 6 42 10 72 8 43 -1 56 -6 58
-19z"/>
<path fill="#ffffff" stroke="none" d="M23069 22194 c31 -9 75 -23 98 -31 23
-8 73 -19 109 -24 37 -5 74 -15 81 -21 8 -6 21 -38 30 -70 24 -86 98 -148 177
-148 19 0 51 -9 71 -21 41 -24 80 -20 90 11 7 23 -7 54 -43 92 -15 17 -22 33
-18 43 6 18 52 16 216 -7 47 -6 142 -8 251 -4 177 7 177 7 205 -27 35 -42 128
-83 204 -91 30 -3 73 -15 95 -26 61 -32 125 -13 125 35 0 61 -113 133 -215
137 -73 4 -83 26 -20 44 90 26 421 104 439 104 10 0 49 -31 87 -69 45 -44 92
-79 132 -98 74 -36 156 -63 188 -63 30 0 59 28 59 56 0 28 -48 85 -96 114 -34
22 -45 54 -21 63 44 16 277 -55 277 -85 0 -7 -16 -23 -35 -35 -58 -38 -67 -60
-51 -123 26 -98 116 -151 175 -102 12 9 28 39 35 67 8 34 18 51 30 53 26 5 71
-42 117 -123 22 -38 49 -85 60 -103 30 -46 14 -62 -60 -62 -93 0 -179 -53
-253 -154 -36 -50 -36 -88 -2 -115 34 -26 45 -26 135 3 67 21 123 50 191 99
28 20 54 15 61 -13 13 -50 -63 -362 -98 -400 -10 -11 -42 -24 -72 -30 -76 -16
-148 -76 -191 -160 -36 -70 -36 -102 0 -132 42 -36 111 -14 184 59 48 49 77
53 82 13 8 -67 46 -159 87 -215 51 -68 56 -97 20 -121 -37 -24 -75 -94 -82
-152 -14 -121 65 -195 157 -147 26 13 61 58 96 120 16 29 37 24 55 -13 22 -44
158 -192 209 -227 22 -15 40 -34 40 -42 0 -7 -16 -27 -35 -44 -35 -31 -64
-105 -80 -206 -8 -48 -25 -55 -59 -24 -47 43 -200 151 -214 151 -27 0 -52 -32
-52 -65 0 -17 9 -58 21 -92 25 -77 89 -144 175 -184 34 -16 68 -37 75 -45 9
-11 14 -52 14 -133 1 -113 7 -145 50 -243 13 -31 -23 -33 -79 -5 -116 58 -216
91 -245 82 -42 -13 -38 -58 10 -129 80 -120 227 -205 382 -222 34 -4 69 -10
78 -15 44 -22 399 -427 399 -454 0 -4 9 -19 19 -34 26 -35 36 -77 22 -86 -7
-3 -36 10 -66 29 -57 39 -192 106 -211 106 -6 0 -39 9 -73 20 -62 19 -179 29
-200 16 -24 -15 -9 -56 43 -123 96 -119 199 -183 372 -228 54 -14 117 -25 141
-25 51 0 63 -17 63 -84 0 -64 -29 -225 -46 -258 -24 -46 -47 -35 -129 62 -42
50 -85 95 -95 100 -74 40 -144 -46 -124 -151 18 -94 82 -186 174 -249 32 -22
18 -44 -54 -84 -87 -49 -199 -76 -312 -76 -51 0 -95 4 -98 9 -3 4 27 32 66 62
88 65 128 120 135 182 11 97 -26 134 -126 124 -69 -6 -197 -55 -245 -93 -48
-38 -92 -107 -107 -167 -17 -69 -43 -84 -117 -68 -72 16 -215 52 -357 91 -60
16 -150 39 -200 51 -49 12 -98 26 -107 31 -31 15 -20 37 24 49 107 28 224 106
265 176 26 46 22 72 -17 93 -36 19 -200 12 -286 -13 -94 -28 -154 -65 -246
-155 -75 -74 -54 -69 -270 -54 -148 10 -317 3 -456 -19 -126 -20 -159 -22
-166 -10 -4 6 7 32 25 57 40 59 69 134 69 179 0 26 -6 39 -26 51 -24 16 -29
16 -82 0 -202 -63 -336 -196 -334 -331 0 -27 -6 -59 -13 -70 -21 -34 -330
-127 -475 -144 -132 -16 -367 -24 -374 -13 -7 12 16 32 79 68 96 55 215 201
215 264 0 65 -70 76 -210 35 -156 -45 -271 -126 -331 -233 -18 -31 -38 -62
-46 -68 -21 -17 -87 0 -261 68 -152 60 -152 60 -205 37 -201 -87 -305 -120
-341 -106 -8 3 -34 37 -59 74 -81 126 -202 206 -359 237 -97 20 -133 20 -152
0 -23 -23 -20 -38 24 -129 44 -91 95 -147 180 -198 86 -52 76 -62 -60 -60
-170 2 -367 41 -595 116 -118 38 -125 45 -124 118 1 47 -4 68 -30 112 -62 108
-177 189 -311 217 -57 12 -63 12 -88 -7 -15 -11 -28 -29 -30 -40 -5 -31 43
-140 83 -188 19 -24 35 -48 35 -54 0 -16 -40 -13 -160 8 -222 41 -444 49 -623
25 -46 -7 -46 -7 -114 58 -136 130 -215 163 -415 175 -90 5 -111 3 -133 -11
-57 -38 -13 -122 105 -201 39 -26 92 -54 118 -61 96 -29 79 -53 -63 -87 -55
-14 -154 -39 -220 -57 -114 -30 -229 -57 -357 -82 -69 -14 -83 -6 -92 55 -19
119 -146 232 -307 273 -70 18 -115 13 -153 -17 -21 -17 -26 -29 -26 -65 0 -76
41 -134 163 -227 21 -15 37 -35 37 -43 0 -14 -12 -15 -92 -9 -151 12 -249 31
-313 61 -83 40 -85 60 -9 127 105 94 156 203 137 296 -5 29 -17 51 -34 63 -24
18 -28 18 -62 4 -48 -20 -114 -87 -158 -161 -19 -33 -42 -61 -50 -63 -20 -4
-66 118 -79 209 -24 166 -5 209 94 209 187 0 396 106 490 249 65 97 46 127
-71 116 -98 -9 -217 -49 -339 -115 -134 -73 -143 -61 -57 69 59 89 170 225
298 367 74 81 74 81 147 87 139 12 267 75 363 179 168 181 88 234 -166 109
-47 -22 -88 -41 -92 -41 -13 0 -7 40 15 92 18 44 22 74 22 180 1 70 6 132 11
137 6 5 37 23 71 40 76 37 137 98 175 173 30 60 38 125 17 146 -32 32 -141
-13 -250 -103 -75 -62 -104 -71 -93 -27 24 95 15 137 -46 212 -38 46 -36 63 8
97 61 47 160 142 188 183 41 59 51 58 114 -8 65 -69 109 -86 143 -56 44 41 62
107 46 178 -8 38 -21 60 -59 98 -27 27 -49 56 -49 64 0 9 16 35 36 57 42 49
114 190 114 222 0 27 24 50 42 39 7 -4 39 -29 71 -56 68 -56 100 -67 136 -47
23 14 26 21 26 75 -1 87 -35 149 -106 191 -39 24 -66 33 -97 33 -63 0 -93 34
-127 146 -34 109 -38 263 -9 295 10 11 22 19 28 19 6 0 44 -23 84 -50 41 -28
80 -50 88 -50 8 0 39 -9 68 -19 48 -17 57 -17 75 -4 15 10 21 25 21 53 0 51
-14 86 -56 136 -51 64 -91 84 -180 92 -89 8 -105 21 -85 71 19 43 56 81 82 81
12 0 76 -26 143 -59 67 -32 144 -68 171 -79 145 -60 177 -72 255 -96 47 -14
92 -26 101 -26 8 0 51 -10 95 -22 70 -19 104 -22 309 -22 210 -1 238 1 325 23
186 46 371 131 494 227 38 30 77 54 86 54 8 0 24 -14 35 -32 28 -48 141 -194
209 -272 90 -101 431 -413 556 -507 86 -65 118 -75 187 -59 45 10 59 18 84 52
29 41 29 42 28 177 0 75 -4 159 -9 186 -5 28 -18 111 -29 185 -11 74 -32 181
-46 238 -14 57 -25 113 -23 125 4 31 59 63 120 71 62 8 109 38 158 100 65 82
107 88 240 32 46 -20 95 -36 109 -36 23 0 87 18 212 61 78 26 94 25 121 -14
48 -70 166 -147 225 -147 15 -1 39 -7 53 -15 56 -32 120 -7 120 47 0 37 -62
101 -115 118 -28 9 -65 46 -65 65 0 13 236 4 289 -11z"/>
<path fill="#ffffff" stroke="none" d="M25181 22164 c19 -14 55 -38 82 -54 78
-49 53 -97 -28 -54 -81 42 -136 98 -120 124 10 16 30 12 66 -16z"/>
<path fill="#ffffff" stroke="none" d="M21159 22163 c26 -50 81 -235 81 -274
0 -26 8 -57 19 -76 20 -33 73 -218 75 -263 1 -16 -4 -25 -14 -25 -18 0 -200
197 -223 241 -9 17 -37 56 -62 85 -66 76 -105 135 -105 156 0 11 24 36 58 61
32 23 73 58 92 77 37 38 64 44 79 18z"/>
<path fill="#ffffff" stroke="none" d="M22778 22114 c82 -46 96 -61 82 -84 -6
-10 -16 -10 -51 4 -24 10 -55 26 -70 37 -15 10 -31 19 -35 19 -15 0 -44 34
-44 52 0 29 31 22 118 -28z"/>
<path fill="#ffffff" stroke="none" d="M21805 22130 c10 -16 -13 -49 -47 -66
-41 -21 -152 -31 -163 -15 -11 19 23 49 79 70 55 22 121 27 131 11z"/>
<path fill="#ffffff" stroke="none" d="M23518 22064 c12 -8 22 -21 22 -29 0
-8 14 -24 30 -37 17 -12 30 -30 30 -41 0 -29 -58 -12 -102 31 -61 58 -45 122
20 76z"/>
<path fill="#ffffff" stroke="none" d="M18379 21986 c10 -12 8 -17 -9 -26 -25
-14 -50 -7 -50 14 0 12 12 19 41 25 4 0 12 -5 18 -13z"/>
<path fill="#ffffff" stroke="none" d="M24642 21960 c25 -25 28 -33 18 -45
-17 -20 -30 -19 -56 6 -14 13 -42 23 -76 27 -39 5 -54 12 -56 25 -3 15 5 17
68 17 66 0 74 -2 102 -30z"/>
<path fill="#ffffff" stroke="none" d="M25638 21952 c3 -31 1 -33 -24 -30 -31
4 -50 28 -41 52 5 12 16 16 34 14 24 -2 29 -8 31 -36z"/>
<path fill="#ffffff" stroke="none" d="M18478 21914 c16 -5 22 -13 20 -28 -2
-16 -13 -22 -45 -28 -22 -3 -59 -16 -82 -27 -22 -12 -54 -21 -71 -21 -68 0 -9
73 79 96 54 15 68 16 99 8z"/>
<path fill="#ffffff" stroke="none" d="M26125 21869 c19 -17 35 -37 35 -45 0
-21 -43 -17 -73 6 -14 11 -28 20 -30 20 -3 0 -18 5 -32 10 -23 9 -25 13 -15
25 22 26 76 18 115 -16z"/>
<path fill="#ffffff" stroke="none" d="M11720 21781 c5 -11 10 -60 10 -110 0
-83 -2 -92 -22 -104 -33 -20 -3330 -25 -3368 -5 -24 13 -25 19 -28 106 -2 52
2 101 8 112 11 20 20 20 1700 20 1660 0 1689 0 1700 -19z"/>
<path fill="#ffffff" stroke="none" d="M18718 21583 c79 -64 93 -136 19 -101
-43 20 -167 107 -167 117 0 35 98 24 148 -16z"/>
<path fill="#ffffff" stroke="none" d="M25888 21611 c27 -17 6 -44 -69 -88
-84 -49 -131 -59 -137 -30 -7 34 120 127 173 127 11 0 26 -4 33 -9z"/>
<path fill="#ffffff" stroke="none" d="M11707 21322 c32 -20 47 -171 21 -204
-18 -22 2 -22 -1800 -20 -1316 2 -1559 4 -1571 16 -21 21 -43 182 -27 201 11
13 220 15 1689 15 922 0 1681 -4 1688 -8z"/>
<path fill="#ffffff" stroke="none" d="M18318 21268 c6 -31 -176 -159 -231
-162 -48 -2 -46 26 5 78 79 82 217 133 226 84z"/>
<path fill="#ffffff" stroke="none" d="M26283 21251 c48 -33 101 -88 110 -113
3 -9 -1 -22 -9 -28 -31 -26 -225 127 -210 165 9 24 55 14 109 -24z"/>
<path fill="#ffffff" stroke="none" d="M25838 20991 c21 -13 -8 -61 -65 -110
-51 -43 -70 -50 -79 -27 -9 24 23 73 72 111 51 38 53 39 72 26z"/>
<path fill="#ffffff" stroke="none" d="M18706 20965 c27 -16 46 -36 53 -56 14
-41 14 -46 -3 -52 -16 -6 -120 74 -130 99 -15 40 20 44 80 9z"/>
<path fill="#ffffff" stroke="none" d="M11733 20856 c14 -3 17 -16 17 -80 0
-69 -2 -77 -24 -92 -23 -14 -171 -15 -1629 -12 -1552 3 -1606 4 -1626 22 -20
18 -51 105 -51 144 0 11 8 22 17 24 26 5 3276 -1 3296 -6z"/>
<path fill="#ffffff" stroke="none" d="M18411 20734 c21 -25 -2 -48 -55 -56
-25 -3 -98 -23 -161 -43 -125 -40 -158 -41 -133 -2 21 32 110 76 198 97 96 23
134 24 151 4z"/>
<path fill="#ffffff" stroke="none" d="M26318 20697 c59 -27 102 -63 102 -84
0 -17 -24 -17 -58 1 -36 18 -213 66 -246 66 -30 0 -35 23 -8 40 29 18 150 5
210 -23z"/>
<path fill="#ffffff" stroke="none" d="M36919 20680 c104 -18 265 -69 436
-138 28 -11 73 -29 100 -40 76 -31 225 -110 259 -139 38 -31 55 -66 56 -115 0
-20 5 -49 11 -65 19 -48 12 -241 -11 -335 -35 -135 -86 -204 -234 -312 -43
-33 -157 -75 -199 -76 -25 0 -80 20 -203 74 -16 8 -75 26 -129 41 -90 24 -116
27 -260 27 -93 -1 -204 -7 -265 -17 -168 -25 -392 -38 -575 -33 -154 5 -178 8
-250 33 -163 57 -255 129 -307 241 -28 60 -30 71 -26 147 13 211 195 421 488
564 183 90 345 134 565 157 73 7 479 -3 544 -14z"/>
<path fill="#ffffff" stroke="none" d="M18420 20421 c33 -32 45 -69 36 -106
-8 -33 -36 -32 -68 3 -50 53 -62 103 -30 121 25 15 31 14 62 -18z"/>
<path fill="#ffffff" stroke="none" d="M26088 20438 c18 -18 15 -68 -7 -108
-14 -28 -25 -35 -47 -35 -26 0 -29 4 -32 34 -5 45 4 77 28 101 23 23 41 25 58
8z"/>
<path fill="#ffffff" stroke="none" d="M18160 20305 c0 -20 -83 -109 -127
-136 -40 -25 -63 -19 -63 15 0 19 13 35 53 64 91 68 137 87 137 57z"/>
<path fill="#ffffff" stroke="none" d="M26434 20259 c62 -46 76 -73 52 -97
-14 -14 -20 -11 -63 32 -26 26 -60 57 -75 68 -15 10 -28 26 -28 35 0 26 52 9
114 -38z"/>
<path fill="#ffffff" stroke="none" d="M17973 19935 c32 -59 34 -127 4 -133
-25 -5 -74 49 -87 97 -9 36 -9 47 5 67 23 36 46 26 78 -31z"/>
<path fill="#ffffff" stroke="none" d="M26577 19944 c10 -26 -6 -59 -55 -111
-76 -82 -99 -68 -66 40 21 66 66 112 95 97 11 -6 23 -18 26 -26z"/>
<path fill="#ffffff" stroke="none" d="M18330 19796 c0 -46 -130 -166 -165
-152 -29 11 -14 43 51 109 71 73 114 89 114 43z"/>
<path fill="#ffffff" stroke="none" d="M26238 19749 c72 -61 87 -90 49 -97
-26 -5 -92 42 -127 90 -64 88 -22 92 78 7z"/>
<path fill="#ffffff" stroke="none" d="M17814 19459 c70 -32 134 -76 150 -102
9 -15 7 -21 -9 -33 -42 -31 -154 8 -224 78 -56 57 -54 107 3 91 11 -3 47 -18
80 -34z"/>
<path fill="#ffffff" stroke="none" d="M26763 19478 c8 -12 5 -26 -16 -57 -43
-65 -89 -89 -184 -97 -79 -7 -83 -6 -83 13 0 14 23 35 78 71 145 94 182 107
205 70z"/>
<path fill="#ffffff" stroke="none" d="M18330 19148 c0 -23 -102 -110 -163
-139 -73 -34 -97 -37 -97 -9 0 13 22 34 63 62 124 84 197 116 197 86z"/>
<path fill="#ffffff" stroke="none" d="M26318 19073 c75 -40 102 -60 100 -72
-3 -12 -13 -15 -43 -14 -76 5 -225 101 -212 137 9 23 26 17 155 -51z"/>
<path fill="#ffffff" stroke="none" d="M17390 18871 c28 -21 62 -54 75 -72 13
-19 33 -42 44 -51 25 -21 27 -38 6 -38 -8 0 -15 4 -15 10 0 18 -39 31 -60 20
-27 -15 -25 -31 10 -75 16 -20 27 -41 24 -46 -20 -32 -124 33 -164 103 -30 52
-37 130 -16 163 22 34 35 32 96 -14z"/>
<path fill="#ffffff" stroke="none" d="M27149 18878 c12 -33 -2 -109 -29 -152
-23 -39 -93 -96 -116 -96 -22 0 -44 42 -44 83 0 51 18 83 79 140 57 53 96 62
110 25z"/>
<path fill="#ffffff" stroke="none" d="M37612 18712 c15 -9 72 -51 129 -92
120 -89 181 -132 254 -184 11 -7 81 -53 155 -101 163 -106 301 -198 395 -264
68 -47 219 -144 260 -167 11 -6 43 -25 70 -42 28 -17 99 -59 159 -94 60 -35
120 -70 135 -78 14 -9 52 -31 84 -50 156 -92 286 -162 472 -253 320 -158 422
-198 720 -287 33 -10 84 -21 114 -25 30 -3 63 -11 74 -17 11 -6 40 -15 65 -22
44 -11 46 -13 73 -81 47 -121 80 -229 115 -375 8 -36 24 -94 34 -130 10 -36
31 -110 46 -165 14 -55 34 -125 44 -155 10 -30 21 -71 25 -90 3 -19 15 -62 25
-95 40 -135 100 -426 125 -609 9 -66 18 -122 20 -126 2 -3 11 -86 20 -185 14
-143 16 -237 12 -455 -4 -151 -11 -306 -17 -345 -13 -86 -54 -274 -74 -335 -8
-25 -28 -90 -46 -145 -41 -133 -72 -210 -113 -282 -19 -32 -38 -73 -44 -89 -6
-17 -29 -61 -52 -98 -23 -38 -41 -70 -41 -73 0 -8 -140 -214 -193 -283 -27
-36 -120 -136 -206 -223 -193 -196 -441 -400 -809 -665 -556 -401 -681 -512
-861 -766 -202 -284 -326 -621 -377 -1021 -28 -227 -33 -281 -45 -555 -16
-368 1 -1043 35 -1405 8 -82 18 -204 21 -270 4 -66 13 -170 20 -230 7 -61 16
-167 20 -235 4 -69 15 -206 25 -305 10 -99 21 -227 25 -285 4 -58 13 -150 20
-205 8 -55 19 -174 25 -265 6 -91 15 -189 20 -218 5 -29 16 -153 25 -275 9
-122 22 -260 30 -307 8 -47 17 -141 20 -210 4 -69 13 -188 21 -265 8 -77 19
-207 24 -290 5 -82 15 -186 20 -230 6 -44 18 -199 26 -345 15 -273 27 -419 39
-457 13 -41 -79 -99 -340 -218 -27 -13 -71 -32 -96 -44 -25 -12 -55 -21 -67
-21 -12 0 -67 -19 -123 -41 -55 -23 -135 -49 -177 -59 -42 -10 -120 -30 -172
-44 -52 -15 -123 -33 -158 -41 -35 -8 -72 -20 -83 -26 -11 -5 -52 -16 -92 -23
-129 -24 -250 -48 -337 -66 -47 -11 -119 -24 -160 -31 -41 -6 -102 -17 -135
-24 -189 -41 -188 -42 -181 149 3 77 8 602 11 1166 3 564 10 1500 15 2080 19
1986 30 3826 36 5840 3 1108 7 2021 9 2028 4 9 253 12 1202 12 1269 0 1254 0
1332 46 70 41 90 100 133 389 15 105 16 709 1 785 -62 303 -85 373 -192 557
-30 53 -155 241 -200 303 -10 14 -66 97 -125 185 -58 88 -132 196 -163 240
-86 121 -358 523 -460 680 -63 96 -118 175 -192 275 -31 41 -65 88 -76 104
-11 16 -29 41 -40 56 -11 15 -41 58 -67 96 -26 38 -77 112 -113 164 -135 195
-195 288 -195 304 0 20 8 20 42 -2z"/>
<path fill="#ffffff" stroke="none" d="M17930 18391 c0 -64 -203 -178 -335
-189 -69 -5 -87 6 -56 35 26 24 232 128 301 152 72 25 90 26 90 2z"/>
<path fill="#ffffff" stroke="none" d="M26631 18381 c114 -40 271 -127 293
-163 30 -49 -70 -40 -200 18 -90 40 -184 114 -184 146 0 23 23 23 91 -1z"/>
<path fill="#ffffff" stroke="none" d="M17111 17958 c35 -12 130 -79 163 -116
23 -26 14 -52 -17 -52 -89 0 -227 93 -227 152 0 32 22 37 81 16z"/>
<path fill="#ffffff" stroke="none" d="M27404 17964 c25 -10 19 -49 -16 -95
-37 -47 -103 -77 -174 -78 -52 -1 -63 19 -33 60 22 31 120 93 172 108 17 5 33
10 34 10 1 1 8 -2 17 -5z"/>
<path fill="#ffffff" stroke="none" d="M24140 17832 c0 -19 -52 -102 -82 -129
-39 -35 -143 -87 -161 -80 -10 4 -17 17 -17 34 0 36 82 116 170 165 64 36 90
39 90 10z"/>
<path fill="#ffffff" stroke="none" d="M20445 17804 c56 -33 66 -43 104 -96
23 -33 31 -52 26 -67 -14 -45 -89 -16 -163 62 -60 64 -79 102 -61 123 14 17
38 11 94 -22z"/>
<path fill="#ffffff" stroke="none" d="M19125 17816 c72 -12 211 -84 222 -113
26 -68 -221 -11 -326 74 -29 24 -23 53 11 52 13 0 55 -6 93 -13z"/>
<path fill="#ffffff" stroke="none" d="M25456 17815 c9 -23 -9 -39 -86 -79
-67 -34 -175 -66 -226 -66 -38 0 -42 29 -8 57 46 37 140 83 186 92 73 15 128
13 134 -4z"/>
<path fill="#ffffff" stroke="none" d="M17738 17792 c6 -39 -91 -182 -124
-182 -23 0 -16 36 18 98 49 88 69 113 87 110 9 -2 17 -13 19 -26z"/>
<path fill="#ffffff" stroke="none" d="M26825 17734 c62 -74 69 -107 24 -112
-50 -6 -140 126 -114 167 13 23 36 9 90 -55z"/>
<path fill="#ffffff" stroke="none" d="M23098 17656 c5 -26 -89 -114 -177
-165 -87 -51 -154 -61 -159 -23 -3 17 13 39 61 86 52 51 80 70 143 95 87 34
127 36 132 7z"/>
<path fill="#ffffff" stroke="none" d="M21503 17640 c78 -37 180 -137 175
-172 -2 -15 -11 -24 -26 -26 -27 -4 -126 44 -195 94 -51 37 -103 106 -92 123
12 20 74 11 138 -19z"/>
<path fill="#ffffff" stroke="none" d="M18111 17638 c122 -41 227 -186 154
-214 -30 -12 -121 36 -193 102 -75 68 -91 96 -72 119 17 20 35 19 111 -7z"/>
<path fill="#ffffff" stroke="none" d="M26448 17614 c6 -61 -133 -167 -237
-181 -40 -6 -41 -5 -41 24 0 73 163 197 250 190 20 -2 26 -8 28 -33z"/>
<path fill="#ffffff" stroke="none" d="M24580 17485 c140 -58 230 -134 230
-193 0 -29 -24 -29 -112 3 -97 35 -117 47 -169 102 -53 55 -73 88 -65 109 8
20 22 18 116 -21z"/>
<path fill="#ffffff" stroke="none" d="M19986 17496 c15 -40 -81 -141 -173
-182 -125 -56 -163 -62 -163 -26 0 22 121 137 173 164 102 54 154 68 163 44z"/>
<path fill="#ffffff" stroke="none" d="M18638 17292 c10 -32 -133 -126 -214
-139 -56 -9 -44 29 26 79 93 67 177 94 188 60z"/>
<path fill="#ffffff" stroke="none" d="M25956 17270 c108 -52 166 -120 103
-120 -11 0 -57 18 -102 40 -84 40 -144 90 -133 109 12 20 48 12 132 -29z"/>
<path fill="#ffffff" stroke="none" d="M20956 17288 c22 -35 -150 -104 -319
-128 -91 -13 -113 -8 -102 23 20 49 397 144 421 105z"/>
<path fill="#ffffff" stroke="none" d="M23730 17270 c111 -28 190 -65 190 -89
0 -29 -20 -31 -123 -16 -106 16 -253 68 -267 94 -24 47 46 50 200 11z"/>
<path fill="#ffffff" stroke="none" d="M38943 15788 c26 -20 40 -154 40 -393
0 -239 -14 -390 -38 -414 -14 -15 -1636 -16 -18060 -19 -17258 -2 -18046 -1
-18062 15 -14 14 -23 55 -36 163 -43 355 -50 590 -18 609 19 12 3071 20 10736
27 3630 4 8695 10 11255 14 8905 12 14164 11 14183 -2z"/>
<path fill="#ffffff" stroke="none" d="M16319 14502 c139 -102 176 -141 153
-164 -17 -17 -140 -37 -228 -38 -92 0 -131 16 -266 111 -40 28 -88 61 -105 72
-18 12 -31 27 -30 32 4 10 341 25 405 17 19 -2 50 -15 71 -30z"/>
<path fill="#ffffff" stroke="none" d="M6288 14035 c2 -269 -1 -1246 -7 -2170
-6 -924 -13 -2119 -16 -2655 -3 -536 -10 -1328 -16 -1760 -5 -432 -14 -1280
-19 -1885 -6 -605 -14 -1307 -19 -1560 -6 -253 -15 -854 -21 -1335 -11 -866
-20 -1143 -41 -1181 -5 -11 -28 -33 -51 -49 -41 -30 -41 -30 -233 -30 -146 0
-204 4 -246 16 -81 24 -117 49 -129 92 -22 73 -37 803 -61 2947 -6 512 -14
1286 -19 1720 -5 435 -14 1645 -19 2690 -6 1045 -15 2483 -21 3195 -16 2192
-16 2440 0 2451 9 5 201 8 465 6 l450 -2 3 -490z"/>
<path fill="#ffffff" stroke="none" d="M8969 14515 c6 -6 6 -459 1 -1290 -11
-1444 -29 -3371 -35 -3605 -5 -178 -11 -647 -25 -1795 -5 -445 -14 -997 -20
-1225 -18 -708 -31 -1120 -36 -1135 -3 -7 -27 -24 -52 -37 -43 -21 -60 -23
-202 -23 -145 0 -158 1 -197 24 -26 15 -46 36 -54 55 -6 18 -14 153 -20 331
-4 165 -13 453 -18 640 -13 434 -38 1827 -51 2920 -6 468 -15 1053 -21 1300
-29 1319 -49 3798 -30 3834 13 23 13 23 381 19 228 -2 373 -7 379 -13z"/>
<path fill="#ffffff" stroke="none" d="M11825 14514 c15 -15 16 -40 11 -228
-4 -116 -11 -758 -16 -1426 -6 -668 -15 -1406 -20 -1640 -5 -234 -14 -906 -20
-1495 -6 -588 -13 -1084 -16 -1102 -4 -27 -13 -36 -61 -57 -30 -15 -79 -32
-107 -40 -28 -8 -76 -22 -108 -30 -41 -12 -63 -13 -82 -6 -28 10 -196 144
-260 206 -39 38 -39 38 -32 1204 5 862 18 4442 16 4571 0 8 9 25 20 37 21 22
24 22 340 22 283 0 320 -2 335 -16z"/>
<path fill="#ffffff" stroke="none" d="M15113 14489 c39 -24 98 -61 130 -83
93 -65 193 -129 322 -208 116 -71 135 -82 206 -122 73 -40 129 -80 141 -100
10 -16 13 -101 13 -336 0 -315 0 -315 -22 -318 -22 -3 -60 20 -506 313 -215
141 -389 253 -497 320 -43 27 -121 76 -220 140 -205 131 -403 255 -513 320
-92 54 -125 84 -112 104 3 5 224 10 495 10 490 2 490 2 563 -40z"/>
<path fill="#ffffff" stroke="none" d="M20680 14495 c46 -44 83 -118 119 -237
18 -59 41 -129 51 -155 10 -26 21 -68 25 -93 4 -25 13 -67 20 -95 17 -61 42
-319 50 -515 4 -80 2 -296 -4 -480 -6 -184 -15 -648 -21 -1030 -5 -382 -17
-922 -25 -1200 -32 -1111 -37 -1253 -46 -1470 -5 -124 -13 -414 -19 -645 -5
-231 -14 -564 -19 -740 -6 -176 -15 -513 -21 -750 -19 -760 -28 -983 -40
-1005 -32 -59 -383 -147 -701 -175 -101 -9 -229 -20 -284 -25 -131 -12 -322
-12 -465 0 -252 21 -435 41 -503 54 -40 8 -103 20 -142 26 -38 6 -119 25 -180
42 -60 17 -128 35 -150 40 -44 11 -343 103 -388 120 -15 6 -38 19 -51 29 -23
18 -23 18 -18 1336 3 1236 -7 2467 -27 3263 -5 190 -14 624 -21 965 -6 341
-15 701 -20 800 -6 99 -15 270 -20 380 -6 110 -22 288 -36 395 -35 258 -57
313 -241 580 -67 98 -202 251 -356 407 -122 123 -178 186 -174 196 5 14 209
15 1841 14 1835 -2 1835 -2 1866 -32z"/>
<path fill="#ffffff" stroke="none" d="M21299 14508 c54 -32 123 -100 229
-228 53 -63 130 -152 171 -198 102 -114 99 -118 -114 -147 -60 -8 -136 -20
-168 -27 -44 -8 -61 -8 -70 1 -11 11 -26 68 -48 186 -6 33 -36 138 -66 232
-30 95 -53 179 -49 188 8 22 72 19 115 -7z"/>
<path fill="#ffffff" stroke="none" d="M25388 14503 c41 -31 86 -219 114 -483
21 -194 5 -1940 -22 -2435 -5 -99 -14 -434 -20 -745 -6 -311 -17 -725 -25
-920 -8 -195 -19 -560 -25 -810 -6 -250 -14 -552 -20 -670 -5 -118 -14 -422
-20 -675 -13 -601 -39 -1161 -55 -1201 -11 -27 -22 -34 -96 -57 -46 -14 -122
-31 -167 -37 -46 -6 -95 -15 -108 -20 -13 -5 -65 -16 -116 -25 -51 -8 -109
-19 -128 -25 -56 -16 -420 -42 -595 -42 -198 0 -542 27 -683 53 -58 10 -127
19 -152 19 -26 0 -69 6 -96 14 -27 8 -76 19 -109 25 -80 14 -189 44 -372 102
-151 48 -222 78 -255 106 -16 14 -17 98 -12 1247 3 677 0 1605 -6 2061 -22
1732 -45 2999 -60 3250 -16 300 -69 663 -104 717 -8 13 -28 60 -45 104 -22 56
-55 113 -105 180 -87 116 -150 198 -182 237 -13 15 -21 33 -18 40 4 10 349 12
1731 11 1656 -2 1727 -3 1751 -21z"/>
<path fill="#ffffff" stroke="none" d="M34889 14510 c5 -8 11 -791 15 -1740 3
-949 10 -2049 16 -2445 5 -396 12 -1318 15 -2050 5 -1261 14 -2360 20 -2525 5
-145 25 -1242 35 -1930 9 -690 9 -695 -11 -712 -18 -15 -43 -17 -222 -13 -111
2 -332 7 -492 10 -159 3 -339 10 -400 15 -60 5 -193 14 -295 20 -237 13 -597
46 -725 66 -55 9 -174 24 -265 35 -91 10 -183 23 -205 29 -22 5 -60 10 -85 10
-25 0 -85 9 -135 21 -49 11 -124 24 -165 29 -75 10 -187 28 -335 57 -44 8
-141 26 -215 39 -198 35 -327 62 -347 72 -10 5 -38 13 -63 17 -25 4 -63 14
-85 22 -22 8 -67 19 -100 24 -33 5 -87 18 -120 28 -33 11 -107 31 -165 46 -58
15 -130 35 -160 45 -30 10 -71 21 -90 25 -19 4 -64 15 -100 26 -36 11 -101 31
-145 44 -254 77 -612 203 -669 236 -10 6 -42 19 -70 29 -121 42 -170 60 -180
69 -6 4 -29 14 -51 21 -22 7 -45 16 -51 21 -6 5 -29 15 -51 23 -52 18 -225
102 -288 140 -27 16 -72 40 -100 54 -27 13 -72 39 -100 56 -46 29 -66 40 -112
65 -123 66 -228 130 -273 164 -51 40 -55 46 -54 83 2 51 29 282 54 464 40 295
66 492 125 970 9 69 22 184 30 255 20 183 53 438 75 585 11 69 25 192 30 274
6 82 13 152 15 156 2 3 13 85 24 182 12 96 25 197 30 224 5 27 12 90 16 139
21 294 24 325 74 750 43 364 50 431 71 630 10 99 26 223 34 275 8 52 20 145
26 205 18 183 49 425 65 510 8 44 26 170 40 280 15 110 35 252 45 315 11 63
27 165 36 225 51 346 100 590 154 770 10 33 30 105 45 160 15 55 38 132 52
170 14 39 34 93 44 120 9 28 21 61 24 75 13 50 121 322 160 405 8 17 39 84 70
150 30 66 60 127 65 135 6 8 19 33 30 55 40 80 207 335 283 433 239 307 337
420 499 575 183 175 257 238 324 278 41 24 41 24 2158 24 1872 0 2118 -2 2125
-15z"/>
<path fill="#ffffff" stroke="none" d="M36259 14511 c8 -14 9 -464 6 -1458 -2
-791 -7 -2196 -10 -3123 -3 -927 -8 -1809 -10 -1960 -3 -151 -9 -1112 -15
-2135 -15 -2763 -27 -3768 -50 -4160 -13 -209 -18 -225 -81 -257 -25 -13 -57
-18 -119 -18 -159 1 -322 18 -395 42 -106 35 -105 31 -115 401 -24 857 -47
2132 -60 3232 -6 495 -15 1217 -20 1605 -6 388 -14 1484 -20 2435 -5 952 -14
2538 -21 3525 -7 987 -9 1812 -5 1832 4 21 14 42 24 47 10 6 196 10 449 11
419 1 432 0 442 -19z"/>
<path fill="#ffffff" stroke="none" d="M41804 13976 c59 -9 124 -20 145 -25
20 -6 74 -15 121 -21 82 -11 186 -29 395 -70 55 -11 136 -24 180 -30 44 -5
112 -17 150 -25 39 -8 122 -22 185 -30 218 -31 366 -53 570 -88 113 -19 234
-38 270 -42 104 -10 234 -36 249 -50 19 -18 9 -29 -56 -60 -101 -48 -286 -141
-338 -170 -27 -15 -86 -46 -130 -70 -44 -23 -110 -58 -147 -78 -240 -130 -360
-194 -498 -264 -69 -34 -128 -63 -131 -63 -4 0 -58 -29 -121 -64 -63 -35 -153
-84 -199 -109 -46 -24 -128 -67 -181 -96 -54 -28 -134 -71 -179 -96 -45 -25
-83 -45 -86 -45 -2 0 -79 -42 -171 -94 -273 -153 -359 -198 -797 -421 -143
-73 -312 -159 -375 -191 -63 -33 -142 -72 -175 -87 -78 -36 -300 -153 -390
-204 -38 -22 -160 -84 -270 -137 -110 -54 -211 -103 -225 -110 -14 -8 -41 -19
-62 -25 -20 -7 -63 -26 -95 -43 -148 -78 -199 -100 -237 -101 -30 -2 -41 2
-44 14 -5 26 82 121 216 236 139 119 130 112 263 200 52 34 123 82 159 107 36
25 106 74 157 108 115 79 285 206 372 278 166 137 205 171 335 294 188 177
359 382 528 633 72 107 107 172 188 348 18 39 40 88 51 110 17 39 66 189 87
270 14 55 40 133 58 174 8 19 19 56 25 84 12 65 25 80 63 73 17 -3 80 -12 140
-20z"/>
<path fill="#ffffff" stroke="none" d="M16972 13859 c127 -131 244 -279 297
-372 30 -55 31 -60 17 -82 -9 -14 -30 -26 -48 -30 -18 -3 -53 -10 -78 -15
-139 -27 -373 -71 -465 -86 -44 -7 -109 -19 -145 -27 -100 -23 -226 -32 -236
-16 -4 7 -6 150 -5 318 2 246 5 310 17 328 27 42 279 95 484 102 45 1 45 1
162 -120z"/>
<path fill="#ffffff" stroke="none" d="M44552 13050 c-2 -181 -8 -320 -13
-327 -9 -10 -42 -32 -190 -130 -19 -12 -39 -23 -45 -23 -9 0 -106 -48 -184
-92 -25 -14 -76 -42 -115 -63 -38 -21 -142 -79 -230 -128 -88 -49 -232 -127
-320 -172 -88 -45 -189 -98 -225 -117 -63 -34 -117 -63 -445 -233 -182 -94
-239 -125 -490 -260 -38 -21 -146 -76 -240 -122 -93 -47 -179 -89 -190 -95
-53 -30 -242 -127 -560 -289 -192 -97 -375 -191 -405 -208 -84 -46 -199 -105
-505 -261 -154 -78 -363 -185 -465 -238 -260 -134 -345 -175 -430 -207 -19 -8
-73 -30 -120 -50 -136 -58 -228 -79 -417 -95 -148 -13 -163 -8 -163 51 0 105
90 561 119 599 20 28 39 33 156 49 44 5 112 19 150 31 164 49 299 96 390 135
186 82 254 115 600 295 88 46 196 101 240 123 44 22 87 46 95 53 8 7 67 38
130 69 231 114 629 318 870 446 52 28 109 58 125 66 17 9 59 33 95 53 36 20
119 65 185 100 66 35 125 66 130 71 6 4 80 43 165 87 85 44 182 94 215 112 33
18 119 63 190 100 72 37 189 98 260 135 72 37 135 71 140 75 6 4 44 25 85 48
68 36 150 81 222 122 15 8 92 48 170 89 79 41 181 94 228 118 47 25 148 77
225 117 177 91 276 145 295 160 8 7 53 32 100 55 47 24 94 50 105 58 11 7 31
12 45 11 25 -3 25 -3 22 -318z"/>
<path fill="#ffffff" stroke="none" d="M15797 12932 c71 -35 115 -64 122 -78
9 -21 17 -4035 12 -6444 -1 -465 -1 -851 -1 -857 0 -21 -38 -15 -83 14 -76 49
-169 127 -183 156 -13 24 -15 358 -20 2365 -2 1285 -6 2914 -8 3619 -3 953 -1
1283 8 1286 17 6 32 0 153 -61z"/>
<path fill="#ffffff" stroke="none" d="M16635 12850 c11 -18 17 -7318 6 -7339
-17 -30 -273 -113 -292 -94 -7 7 -10 752 -11 2329 0 1276 -3 2927 -7 3669 -3
743 -3 1360 1 1372 8 25 50 40 161 58 105 16 134 17 142 5z"/>
<path fill="#ffffff" stroke="none" d="M44537 8681 c3 -3564 3 -3564 -33
-3597 -60 -57 -176 -140 -241 -173 -45 -22 -76 -31 -112 -31 -83 0 -331 90
-344 124 -4 9 -7 1554 -7 3433 0 2758 2 3419 12 3429 7 6 56 34 108 61 52 28
120 65 150 83 30 18 109 61 175 95 145 74 192 101 224 127 14 10 34 18 45 16
21 -3 21 -3 23 -3567z"/>
<path fill="#ffffff" stroke="none" d="M39549 9636 c8 -10 11 -59 9 -158 -2
-78 0 -602 4 -1163 10 -1332 12 -5955 3 -5977 -4 -9 -21 -26 -38 -37 -18 -11
-50 -33 -72 -48 -72 -51 -230 -143 -246 -143 -8 0 -25 -7 -37 -16 -12 -8 -32
-14 -43 -12 -22 3 -22 3 -20 723 2 720 2 720 30 760 65 93 71 117 60 281 -13
208 -43 616 -64 874 -8 96 -17 222 -20 280 -3 58 -12 168 -20 245 -8 77 -19
214 -25 305 -6 91 -15 197 -21 235 -17 120 -39 367 -39 445 0 42 -6 129 -14
195 -8 66 -18 161 -21 210 -4 50 -13 128 -20 175 -7 47 -16 144 -20 215 -3 72
-14 191 -24 265 -11 74 -24 214 -30 310 -6 96 -16 216 -22 265 -5 50 -14 146
-20 215 -5 69 -14 168 -19 220 -19 187 -31 461 -37 841 -6 381 -6 387 14 397
11 6 23 8 27 5 12 -12 192 -10 251 2 33 7 89 16 125 20 36 3 92 15 125 25 33
10 76 22 95 25 19 4 46 13 60 21 33 17 55 17 69 0z"/>
<path fill="#ffffff" stroke="none" d="M22900 6076 c154 -44 247 -66 283 -66
19 0 63 -9 98 -20 58 -17 163 -33 419 -61 47 -5 222 -9 390 -9 367 -1 570 18
885 81 119 24 279 65 303 78 9 5 35 12 57 15 34 6 50 2 110 -30 38 -20 90 -51
115 -68 25 -18 81 -54 125 -81 44 -26 116 -72 160 -100 44 -29 116 -75 160
-103 269 -172 357 -242 541 -426 139 -140 184 -192 245 -286 113 -173 139
-254 139 -427 0 -123 -8 -134 -126 -178 -95 -36 -283 -62 -484 -69 -167 -5
-249 -1 -440 23 -47 6 -121 15 -165 20 -114 13 -338 49 -420 66 -38 8 -104 22
-145 30 -41 8 -122 26 -180 40 -58 15 -139 34 -180 44 -83 21 -154 41 -340 96
-69 21 -138 41 -155 45 -16 4 -84 25 -150 48 -66 22 -136 45 -155 51 -19 6
-73 24 -120 41 -47 18 -103 38 -125 45 -22 8 -78 30 -125 50 -47 20 -96 40
-110 45 -22 7 -90 36 -175 76 -16 7 -64 28 -105 45 -168 71 -363 188 -405 243
-38 50 -67 158 -74 276 -9 137 5 458 20 476 16 19 31 18 129 -10z"/>
<path fill="#ffffff" stroke="none" d="M18297 5600 c21 -11 47 -20 58 -20 11
0 52 -9 90 -19 39 -11 108 -25 155 -31 47 -6 101 -16 120 -21 19 -5 94 -17
165 -25 72 -8 166 -19 210 -25 141 -17 505 -26 685 -18 172 8 349 29 585 70
126 22 143 25 295 64 52 14 107 25 122 25 28 0 87 -25 153 -65 22 -13 57 -34
78 -45 110 -61 576 -367 697 -459 200 -151 304 -252 441 -426 77 -98 140 -207
186 -322 23 -60 27 -82 27 -191 1 -124 1 -124 -31 -152 -44 -40 -183 -80 -328
-96 -213 -23 -551 -16 -805 17 -41 5 -127 16 -190 24 -113 14 -262 42 -390 72
-36 8 -96 22 -135 29 -38 8 -90 21 -115 28 -25 8 -65 18 -90 21 -25 4 -52 11
-61 16 -16 8 -170 51 -254 70 -46 11 -184 52 -265 79 -30 10 -95 31 -145 45
-124 37 -308 102 -470 165 -44 17 -123 47 -175 66 -52 19 -111 43 -131 54 -20
11 -42 20 -48 20 -19 0 -201 93 -304 154 -182 108 -222 172 -235 367 -9 140 5
517 21 537 14 17 42 15 84 -8z"/>
<path fill="#ffffff" stroke="none" d="M29935 3372 c233 -75 314 -97 595 -166
140 -34 198 -48 265 -62 38 -8 92 -21 120 -29 76 -21 273 -64 332 -71 69 -9
90 -23 74 -52 -6 -12 -19 -26 -29 -31 -9 -5 -56 -40 -104 -78 -47 -37 -119
-88 -159 -113 -39 -25 -86 -54 -103 -66 -70 -46 -290 -165 -421 -229 -77 -37
-167 -80 -200 -96 -140 -68 -405 -151 -555 -174 -52 -8 -120 -21 -150 -30
-182 -51 -435 24 -475 141 -35 103 64 360 209 544 39 49 98 124 131 166 101
129 346 371 380 374 1 0 41 -13 90 -28z"/>
<path fill="#ffffff" stroke="none" d="M38701 3294 c11 -13 14 -128 16 -589 3
-502 2 -574 -12 -585 -17 -14 -25 -12 -107 22 -97 41 -88 -16 -88 562 0 281 4
517 9 525 9 14 137 80 157 81 6 0 18 -7 25 -16z"/>
<path fill="#ffffff" stroke="none" d="M33655 2700 c176 -18 569 -30 961 -30
293 0 384 -3 392 -12 6 -7 13 -78 17 -158 7 -146 7 -146 -60 -208 -63 -57
-114 -98 -310 -247 -90 -68 -222 -156 -308 -206 -224 -130 -260 -151 -366
-203 -69 -35 -98 -47 -181 -76 -19 -7 -64 -23 -100 -36 -90 -33 -168 -51 -338
-79 -121 -20 -157 -23 -207 -15 -191 31 -265 96 -265 234 0 70 38 244 64 294
9 17 16 37 16 44 0 18 61 136 103 200 50 77 187 305 187 312 0 14 62 90 90
111 16 12 39 34 51 49 37 47 39 47 254 26z"/>
<path fill="#111111" stroke="none" d="M22938 21574 c-34 -18 -37 -55 -8 -84
20 -20 33 -20 1070 -20 1037 0 1050 0 1070 20 33 33 20 71 -31 89 -23 8 -332
11 -1053 11 -886 -1 -1025 -3 -1048 -16z"/>
<path fill="#111111" stroke="none" d="M22963 21170 c-57 -23 -49 -92 14 -109
53 -15 2121 -15 2160 0 54 20 60 69 11 99 -32 20 -53 20 -1098 19 -589 0
-1075 -4 -1087 -9z"/>
<path fill="#111111" stroke="none" d="M19200 20529 c-59 -13 -86 -63 -56
-105 14 -19 58 -19 3082 -22 2770 -2 3070 -1 3091 14 33 21 28 69 -10 98 -28
21 -28 21 -3050 22 -1662 1 -3038 -2 -3057 -7z"/>
<path fill="#111111" stroke="none" d="M19025 20030 c-25 -12 -30 -21 -30 -50
0 -30 5 -37 35 -52 33 -17 215 -18 3190 -18 1850 0 3171 4 3194 9 52 13 70 32
62 66 -15 57 201 54 -3247 57 -2805 3 -3177 1 -3204 -12z"/>
<path fill="#111111" stroke="none" d="M20760 19550 c-1749 -5 -1837 -6 -1863
-23 -33 -22 -41 -39 -33 -71 13 -54 -195 -51 3379 -49 3114 2 3310 3 3328 19
28 25 24 66 -9 97 -28 27 -28 27 -1497 29 -809 2 -2296 1 -3305 -2z"/>
<path fill="#111111" stroke="none" d="M18808 19003 c-30 -5 -78 -55 -78 -81
1 -22 19 -46 47 -60 16 -9 866 -12 3463 -12 3442 0 3442 0 3471 29 31 31 31
49 0 85 -41 49 149 46 -3478 45 -1869 -1 -3410 -4 -3425 -6z"/>
<path fill="#111111" stroke="none" d="M20073 18308 c-64 -46 -64 -97 1 -130
41 -21 41 -21 2173 -20 1684 1 2137 4 2152 14 53 33 47 100 -12 137 -34 21
-34 21 -2158 21 -2124 0 -2124 0 -2156 -22z"/>
</g>
<g transform="translate(0.000000,1050.500000) scale(0.025000,-0.025000)"
fill="#999999" stroke="none">
</g>
</svg>
